<svg width="1456" height="883" viewBox="0 0 1456 883" fill="none" xmlns="http://www.w3.org/2000/svg">
<g clip-path="url(#clip0)">
<rect width="1456" height="883" fill="white"/>
<path fill-rule="evenodd" clip-rule="evenodd" d="M14.7929 630.156C50.829 495.416 415.472 572.175 654.527 530.52C893.583 488.865 1176.41 294.868 1363.58 389.897C1550.76 484.927 1351.61 714.641 922.302 766.479C492.998 818.318 -21.2432 764.897 14.7929 630.156Z" fill="#F2F2F2"/>
<g opacity="0.5">
<path fill-rule="evenodd" clip-rule="evenodd" d="M461.908 128.672C460.335 130.243 460.946 135.824 460.913 137.89C460.862 141.105 461.063 144.292 461.331 147.496C461.512 149.642 462.527 170.114 465.353 168.542C466.946 167.656 465.947 161.733 465.944 159.86C465.938 155.696 465.764 151.542 465.487 147.386C465.229 143.529 465.067 139.716 465.215 135.851C465.251 134.908 466.134 124.439 461.908 128.672" fill="#89C5CC"/>
<path fill-rule="evenodd" clip-rule="evenodd" d="M530.409 126.149C516.896 126.256 503.388 126.923 489.881 127.331C483.381 127.528 476.886 127.778 470.394 128.138C468.181 128.261 463.436 127.552 461.593 128.731C457.501 131.348 464.1 131.96 465.859 131.896C492.59 130.927 519.329 129.65 546.082 129.59C559.206 129.561 572.323 129.934 585.448 129.85C590.465 129.819 596.02 127.657 597.287 133.497C598.717 140.086 597.074 147.423 596.627 154.045C596.329 158.465 596.435 162.794 596.634 167.211C596.762 170.04 596.429 173.228 596.93 176.005C597.411 178.679 599.333 180.282 601.095 177.287C602.148 175.497 601.624 171.078 601.694 169.005C601.788 166.213 601.7 163.421 601.7 160.628C601.699 153.811 602.661 147.021 602.534 140.206C602.452 135.811 602.219 127.844 596.676 126.788C590.572 125.625 583.069 126.794 576.822 126.723C561.344 126.546 545.892 126.028 530.409 126.149" fill="#89C5CC"/>
<path fill-rule="evenodd" clip-rule="evenodd" d="M493.174 168.786C488.078 168.786 482.982 168.817 477.887 168.901C473.517 168.973 466.647 168.063 462.58 169.626C459.795 170.696 459.056 173.805 462.58 174.633C466.423 175.536 472.215 174.059 476.237 173.988C496.4 173.632 516.758 173.168 536.894 174.444C555.762 175.638 574.993 176.797 593.888 175.536C595.478 175.43 603.586 175.107 599.886 172.068C597.728 170.294 588.979 171.46 586.174 171.375C576.28 171.077 566.376 171.011 556.485 170.636C546.723 170.265 537.004 169.168 527.238 168.896C515.893 168.58 504.523 168.786 493.174 168.786" fill="#89C5CC"/>
<path fill-rule="evenodd" clip-rule="evenodd" d="M488.075 139.804C496.017 140.151 503.875 151.669 495.839 157.235C488.3 162.459 474.172 156.734 478.364 146.606C477.761 148.07 479.126 145.015 479.143 144.995C479.94 144.056 481.371 143.016 482.354 142.276C483.478 141.428 484.649 140.496 486.005 140.071C486.895 139.792 486.755 140.841 488.075 139.804M484.207 135.65C480.49 137.101 478.794 138.738 476.239 141.701C474.472 143.751 472.219 144.83 472.239 147.6C472.243 148.213 473.031 148.887 473.167 149.478C473.355 150.294 473.137 151.34 473.286 152.207C474.824 161.157 485.501 164.174 493.317 162.484C500.125 161.012 505.217 154.477 503.64 147.37C502.052 140.216 491.444 132.819 484.207 135.65" fill="#89C5CC"/>
<path fill-rule="evenodd" clip-rule="evenodd" d="M480.896 148.143C480.896 151.362 485.982 151.362 485.982 148.143C485.982 144.96 480.896 144.823 480.896 148.143" fill="#89C5CC"/>
<path fill-rule="evenodd" clip-rule="evenodd" d="M487.258 147.491C487.258 150.049 491.299 150.049 491.299 147.491C491.299 144.962 487.258 144.854 487.258 147.491" fill="#89C5CC"/>
<path fill-rule="evenodd" clip-rule="evenodd" d="M488.51 152.767C487.216 153.264 485.575 152.233 484.512 152.912C482.631 154.117 484.517 155.206 485.525 155.69C490.066 157.869 490.873 151.861 488.51 152.767" fill="#89C5CC"/>
<path fill-rule="evenodd" clip-rule="evenodd" d="M557.85 145.632C557.714 145.689 557.233 145.893 557.85 145.632ZM538.078 142.742C534.679 143.509 531.81 146.683 528.118 146.258C525.289 145.933 523.373 143.202 520.58 142.806C517.007 142.298 507.282 150.448 512.395 151.847C515.378 152.663 517.033 147.212 519.668 146.922C521.753 146.693 524.588 149.25 526.748 149.614C530.778 150.293 533.546 148.073 537.083 146.641C540.928 145.086 543.115 146.487 546.458 148.216C549.097 149.58 551.583 150.469 554.602 149.906C557.436 149.378 560.997 146.463 563.849 146.762C566.643 147.055 568.637 149.971 571.511 150.242C572.696 150.353 574.46 150.757 574.261 148.928C574.101 147.465 572.468 147.713 571.446 147.18C568.818 145.812 566.36 143.388 563.189 143.595C560.803 143.751 558.631 145.427 556.433 146.229C549.233 148.855 545.185 141.148 538.078 142.742" fill="#89C5CC"/>
<path fill-rule="evenodd" clip-rule="evenodd" d="M544.092 189.111C530.204 189.239 516.268 189.445 502.419 190.558C499.135 190.822 465.608 193.988 465.672 194.216C465.789 194.637 470.102 195.282 470.075 195.381C469.784 194.661 469.12 194.362 468.082 194.487C499.879 194.487 531.576 191.64 563.416 192.152C571.416 192.28 579.446 192.227 587.441 192.479C589.436 192.542 594.382 193.972 595.949 193.071C600.063 190.706 592.589 190.433 591.352 190.333C575.683 189.08 559.805 188.954 544.092 189.111" fill="#69A1AC"/>
<path fill-rule="evenodd" clip-rule="evenodd" d="M461.556 195.859C459.479 197.941 461.391 205.43 461.473 208.245C461.591 212.314 461.494 216.412 461.851 220.471C462.259 225.107 462.891 230.047 464.107 234.545C464.777 237.023 467.129 240.961 468.061 236.458C468.726 233.242 467.716 228.976 467.364 225.7C466.894 221.317 466.78 216.992 466.763 212.587C466.747 208.75 466.673 204.896 466.358 201.071C466.195 199.084 465.196 192.238 461.556 195.859" fill="#69A1AC"/>
<path fill-rule="evenodd" clip-rule="evenodd" d="M513.794 233.998C503.938 234.167 494.061 234.4 484.222 235.015C480.189 235.268 476.159 235.644 472.142 236.07C471.322 236.157 462.247 236.525 466.302 239.874C468.132 241.387 475.661 239.296 478.148 239.078C482.33 238.711 486.511 238.473 490.706 238.296C500.424 237.883 510.172 237.519 519.9 237.687C537.667 237.996 555.319 238.133 573.09 237.737C575.615 237.681 595.396 238.209 596.068 235.583C596.609 233.466 589.535 234.437 588.245 234.475C583.514 234.617 578.782 234.584 574.049 234.56C553.997 234.457 533.83 233.659 513.794 233.998" fill="#69A1AC"/>
<path fill-rule="evenodd" clip-rule="evenodd" d="M592.719 192.347C593.032 201.122 594.526 209.887 595.004 218.689C595.222 222.712 595.479 226.732 595.676 230.757C595.74 232.055 595.217 235.184 596.752 235.931C598.858 236.955 599.142 234.891 599.536 233.495C600.675 229.462 599.904 224.223 599.801 220.081C599.701 216.07 599.694 212.051 599.398 208.047C599.095 203.956 598.272 199.943 597.889 195.867C597.728 194.143 598.293 191.274 596.463 190.204C594.881 189.279 592.65 190.445 592.719 192.347" fill="#69A1AC"/>
<path fill-rule="evenodd" clip-rule="evenodd" d="M495.845 206.944C495.882 206.973 495.919 207.002 495.957 207.031C495.919 207.002 495.882 206.973 495.845 206.944M487.469 204.344C490.592 205.236 493.157 204.904 496.141 207.177C498.614 209.063 501.151 211.821 501.971 214.869C503.867 221.911 497.441 225.771 491.418 225.847C485.248 225.924 476.115 224.493 476.431 216.585C476.674 210.509 481.111 204.58 487.469 204.344M487.689 200.364C479.59 200.767 473.057 209.863 473.127 217.518C473.212 226.797 483.725 229.188 491.194 229.252C499.623 229.324 508.028 223.504 505.77 214.025C503.96 206.431 495.477 199.959 487.689 200.364" fill="#69A1AC"/>
<path fill-rule="evenodd" clip-rule="evenodd" d="M479.542 212.822C479.542 215.41 483.63 215.41 483.63 212.822C483.63 210.265 479.542 210.155 479.542 212.822" fill="#69A1AC"/>
<path fill-rule="evenodd" clip-rule="evenodd" d="M488.117 211.687C488.117 214.295 492.238 214.295 492.238 211.687C492.238 209.109 488.117 208.998 488.117 211.687" fill="#69A1AC"/>
<path fill-rule="evenodd" clip-rule="evenodd" d="M483.39 217.589C480.729 220.245 490.076 224.902 492.281 221.207C494.092 218.171 490.149 219.178 488.752 219.014C487.233 218.835 484.629 216.352 483.39 217.589" fill="#69A1AC"/>
<path fill-rule="evenodd" clip-rule="evenodd" d="M558.124 211.74C557.868 211.848 557.868 211.848 558.124 211.74ZM523.022 207.416C520.328 207.921 511.486 210.904 511.367 214.1C511.148 219.91 519.808 213.959 521.688 213.195C526.796 211.119 529.48 215.354 534.612 215.577C539.068 215.771 543.166 211.957 547.364 212.408C551.763 212.881 553.879 217.56 558.956 215.076C561.643 213.762 561.575 211.735 558.559 211.544C556.737 211.429 555.484 212.182 553.584 211.398C550.612 210.172 549.415 208.176 545.859 208.493C543.175 208.733 540.75 210.245 538.13 210.831C532.132 212.171 528.805 206.332 523.022 207.416" fill="#69A1AC"/>
<path fill-rule="evenodd" clip-rule="evenodd" d="M578.818 214.263C578.632 214.341 578.632 214.341 578.818 214.263ZM579.497 211.844C579.527 211.857 579.73 212.139 579.497 211.844ZM576.409 209.997C576.293 210.086 576.293 210.086 576.409 209.997ZM576.476 209.974C577.075 210.333 581.89 213.625 578.393 214.401C576.617 214.794 575.148 211.222 576.476 209.974M574.882 206.327C567.169 209.844 575.469 222.429 581.522 217.315C584.069 215.164 584.404 210.815 581.926 208.573C580.442 207.23 576.897 205.406 574.882 206.327" fill="#69A1AC"/>
<path fill-rule="evenodd" clip-rule="evenodd" d="M502.477 255.921C492.852 255.924 483.143 255.722 473.531 256.292C471.914 256.388 465.752 256.08 464.918 257.771C463.394 260.864 469.734 259.329 470.655 259.236C489.793 257.32 509.784 258.423 528.985 258.969C544.689 259.415 560.308 259.692 575.993 260.502C580.116 260.714 584.235 260.949 588.355 261.198C589.698 261.279 593.078 262.169 593.361 260.024C593.623 258.039 589.407 258.487 588.354 258.432C579.979 257.991 571.61 257.529 563.237 257.058C543.085 255.922 522.661 255.917 502.477 255.921" fill="#89C5CC"/>
<path fill-rule="evenodd" clip-rule="evenodd" d="M464.609 259.36C462.812 261.147 463.654 267.971 463.604 270.226C463.516 274.171 463.33 278.113 463.247 282.056C463.16 286.178 463.281 290.319 463.524 294.435C463.626 296.163 465.045 304.515 467.278 299.735C468.276 297.599 467.254 291.65 467.269 289.23C467.297 284.826 467.534 280.44 467.753 276.041C467.942 272.26 467.949 268.475 468.114 264.693C468.166 263.487 468.309 255.649 464.609 259.36" fill="#89C5CC"/>
<path fill-rule="evenodd" clip-rule="evenodd" d="M594.98 294.595C585.613 295.555 576.096 295.102 566.694 295.811C558.591 296.422 550.495 296.672 542.371 296.844C523.975 297.232 505.547 297.611 487.204 299.144C483.024 299.493 478.849 299.864 474.657 300.051C472.561 300.144 463.764 299.19 463.109 301.4C461.994 305.164 471.4 303.674 473.429 303.615C477.891 303.487 482.332 303.164 486.781 302.825C505.485 301.4 524.259 300.974 543.003 300.382C553.196 300.06 563.319 299.314 573.49 298.636C578.56 298.298 583.643 298.287 588.712 297.959C590.039 297.873 594.734 298.042 595.688 296.975C596.343 296.242 596.509 294.453 594.98 294.595" fill="#89C5CC"/>
<path fill-rule="evenodd" clip-rule="evenodd" d="M591.805 260C592.126 268.983 592.634 277.958 592.937 286.94C593.028 289.641 592.212 294.482 593.716 296.864C596.135 300.695 598.023 296.641 598.466 294.254C599.863 286.721 598.361 278.4 597.97 270.82C597.822 267.929 598.719 261.493 597.322 258.905C595.991 256.44 591.686 256.687 591.805 260" fill="#89C5CC"/>
<path fill-rule="evenodd" clip-rule="evenodd" d="M576.079 272.793C579.668 273.766 580.192 281.567 576.143 282.145C570.116 283.003 572.752 274.402 576.079 272.793M575.074 269.691C573.979 269.657 571.453 269.355 570.778 270.246C570.214 270.992 570.784 272.564 570.718 273.275C570.481 275.813 568.417 277.279 569.34 280.276C569.966 282.31 571.643 284.221 573.687 284.927C584.472 288.655 584.341 267.816 575.074 269.691" fill="#89C5CC"/>
<path fill-rule="evenodd" clip-rule="evenodd" d="M477.702 271.091C477.675 271.125 477.648 271.159 477.622 271.194C477.648 271.159 477.675 271.125 477.702 271.091M486.173 266.584C486.131 266.223 486.088 265.862 486.046 265.501C491.894 268.261 496.547 273.396 494.605 280.288C493.124 285.546 487.771 287.411 482.784 286.113C477.264 284.675 474.626 280.125 476.114 274.538C476.801 271.96 478.91 268.496 481.635 267.667C482.904 267.281 485.71 268.265 486.173 266.584M482.753 264.401C481.274 264.501 479.834 265.117 478.627 265.96C479.757 265.004 481.263 264.435 482.753 264.401M482.796 261.005C479.142 261.117 476.747 263.329 474.58 265.985C473.9 266.819 471.6 269.03 471.885 270.153C472.11 271.042 472.699 272.34 473.94 271.35C467.442 284.3 484.228 295.346 494.475 286.34C504.039 277.936 494.55 260.611 482.796 261.005" fill="#89C5CC"/>
<path fill-rule="evenodd" clip-rule="evenodd" d="M479.476 273.035C479.476 274.759 482.153 274.759 482.153 273.035C482.153 271.31 479.476 271.31 479.476 273.035" fill="#89C5CC"/>
<path fill-rule="evenodd" clip-rule="evenodd" d="M484.044 273.329C484.044 275.081 486.764 275.081 486.764 273.329C486.764 271.576 484.044 271.576 484.044 273.329" fill="#89C5CC"/>
<path fill-rule="evenodd" clip-rule="evenodd" d="M486.117 279.484C484.845 279.587 480.187 279.155 479.369 280.269C478.003 282.132 480.183 282.197 481.254 282.398C482.219 282.579 486.413 282.477 487.004 281.62C487.526 280.863 487.404 279.374 486.117 279.484" fill="#89C5CC"/>
<path fill-rule="evenodd" clip-rule="evenodd" d="M542.241 274.653C542.022 274.743 542.022 274.743 542.241 274.653ZM524.64 273.366C521.772 273.577 519.344 275.226 516.602 275.884C513.676 276.587 512.409 275.295 509.748 274.449C506.98 273.569 505.011 273.917 502.786 275.807C501.526 276.878 498.76 279.344 499.548 281.247C501.352 285.602 505.436 278.516 507.357 278.186C510.353 277.672 513.019 280.292 516.475 279.543C519.606 278.864 522.384 276.714 525.654 276.691C528.389 276.671 530.966 278.168 533.666 278.53C537.788 279.083 540.494 277.619 544.304 276.533C547.608 275.591 549.924 276.833 553.032 277.878C554.452 278.355 559.191 280.091 558.319 276.943C558.072 276.054 551.827 274.464 550.859 274.158C547.445 273.08 545.283 273.5 542.03 274.74C539.318 275.775 537.036 276.279 534.128 275.71C530.924 275.082 528.01 273.11 524.64 273.366" fill="#89C5CC"/>
</g>
<g opacity="0.5">
<path fill-rule="evenodd" clip-rule="evenodd" d="M656.575 129.012C657.038 119.055 657.674 109.113 658.009 99.1504C658.176 94.2137 658.306 89.2765 658.432 84.3388C658.459 83.2393 658.488 82.1403 658.513 81.0408C658.594 77.3056 658.151 77 661.91 76.6685C678.679 75.1883 695.515 74.6977 712.304 73.3585C732.553 71.7433 752.907 70.6281 773.213 70.1282C782.236 69.9056 791.298 69.4447 800.323 69.7252C802.322 69.7874 806.247 69.2671 807.035 70.8215C807.375 71.4929 806.661 73.8036 806.571 74.5785C806.288 76.9991 806.024 79.428 805.861 81.8607C804.901 96.2081 805.473 110.917 808.251 125.047C801.734 121.372 793.5 118.211 785.904 118.838C778.16 119.478 772.367 123.952 766.168 128.071C762.662 130.4 761.481 131.012 757.983 128.756C754.968 126.811 752.116 124.588 749.272 122.405C744.883 119.037 740.741 115.386 736.485 111.855C728.66 105.363 717.878 96.1223 707.07 98.8429C699.348 100.787 692.218 105.031 685.516 109.184C675.558 115.355 666.545 122.912 656.575 129.012M790.779 65.3037C752.306 65.3037 714.121 69.0334 675.756 71.051C671.749 71.2615 667.756 71.5718 663.764 71.9571C661.103 72.214 654.596 71.1354 652.852 73.409C651.688 74.9258 652.688 75.1535 652.852 76.5947C653.058 78.4111 652.936 80.5632 652.883 82.4858C652.755 87.1183 652.62 91.7504 652.515 96.3834C652.118 113.893 651.869 131.4 652.578 148.905C652.733 152.723 654.124 158.009 653.363 161.719C652.812 164.405 650.97 166.039 655.218 166.535C659.398 167.024 664.509 165.781 668.693 165.384C672.901 164.983 677.108 164.548 681.321 164.201C699.638 162.692 718.133 162.92 736.499 162.418C755.029 161.912 773.567 161.88 792.104 161.869C799.86 161.865 808.723 162.301 816.291 160.167C818.953 159.415 819.384 159.045 818.727 156.404C818.603 155.902 817.799 155.717 817.563 154.811C817.242 153.578 817.407 152.079 817.332 150.796C817.087 146.604 817.001 142.404 816.804 138.21C816.474 131.201 815.266 124.399 814.372 117.461C813.341 109.449 813.394 101.313 813.373 93.2482C813.361 88.7747 813.476 84.3161 813.835 79.8551C814.066 76.994 815.475 72.7222 814.76 70.054C814.404 68.7255 813.822 67.6719 812.439 67.1001C811.563 66.7375 810.826 67.0213 809.96 66.9295C808.933 66.8205 808.292 66.6763 807.062 66.3976C801.789 65.2026 796.151 65.3037 790.779 65.3037" fill="#69A1AC"/>
<path fill-rule="evenodd" clip-rule="evenodd" d="M769.487 84.3524C769.484 87.1408 769.049 91.2553 770.335 93.8809C771.965 97.2113 774.005 96.1703 774.545 93.0406C774.855 91.2474 774.847 85.9407 774.271 84.3524C773.456 82.1043 769.487 80.5731 769.487 84.3524" fill="#89C5CC"/>
<path fill-rule="evenodd" clip-rule="evenodd" d="M774.166 85.4291C771.548 85.5214 763.924 84.893 762.153 86.9979C759.115 90.6079 764.404 91.2474 766.675 91.0452C769.303 90.8115 777.423 91.3818 779.183 89.2747C782.127 85.7495 776.224 85.354 774.166 85.4291" fill="#89C5CC"/>
<path fill-rule="evenodd" clip-rule="evenodd" d="M672.583 178.579C684.091 180.578 680.511 198.125 669.621 194.06C665.827 192.644 660.237 188.552 662.334 183.731C663.9 180.129 669.006 178.236 672.583 178.579M667.818 173.124C660.334 174.384 655.217 182.483 657.783 189.548C660.259 196.363 669.648 201.354 676.573 198.905C683.183 196.566 686.481 187.771 684.253 181.337C681.924 174.615 674.338 172.026 667.818 173.124" fill="#89C5CC"/>
<path fill-rule="evenodd" clip-rule="evenodd" d="M737.816 180.632C734.951 180.87 732.475 182.876 729.592 183.231C726.896 183.563 724.662 182.64 722.138 181.903C719.087 181.012 716.289 180.621 713.171 181.412C710.789 182.017 708.439 183.638 705.964 183.834C701.094 184.218 695.434 178.662 691.632 184.947C689.809 187.959 692.456 189.9 695.182 188.495C698.024 187.03 696.629 186.506 700.155 187.371C703.096 188.092 705.474 188.484 708.42 187.473C711.089 186.558 713.432 184.883 716.333 184.694C719.174 184.51 721.645 185.804 724.36 186.362C727.699 187.049 730.653 186.529 733.817 185.483C736.826 184.487 738.027 183.943 741.064 184.831C742.986 185.393 747.187 187.18 749.058 185.74C752.294 183.251 747.962 182.887 746.256 182.533C743.509 181.964 740.667 180.398 737.816 180.632" fill="#89C5CC"/>
<path fill-rule="evenodd" clip-rule="evenodd" d="M803.384 178.959C803.407 178.977 803.43 178.995 803.452 179.012C803.43 178.995 803.406 178.977 803.384 178.959M800.571 178.371C804.754 178.64 809.277 186.26 803.735 186.531C799.834 186.721 795.469 180.049 800.571 178.371M799.984 172.136C786.758 175.829 792.804 194.477 805.562 192.323C811.357 191.344 813.321 184.631 811.405 179.661C810.582 177.527 808.978 175.727 807.061 174.499C805.647 173.592 801.601 171.686 799.984 172.136" fill="#89C5CC"/>
<path fill-rule="evenodd" clip-rule="evenodd" d="M738.276 211.065C749.915 210.666 761.555 210.266 773.206 210.158C779.52 210.1 785.8 210.21 792.105 210.572C794.902 210.732 797.696 210.887 800.495 211.005C800.977 211.026 801.644 210.993 802.38 210.957C804.112 210.872 806.227 210.768 807.222 211.294C812.788 214.238 801.448 214.561 800.07 214.538C796.983 214.486 793.899 214.334 790.815 214.181C788.12 214.048 785.425 213.915 782.727 213.848C765.42 213.423 748.008 214.201 730.671 214.975C726.697 215.152 722.727 215.33 718.763 215.492C714.554 215.665 710.347 215.777 706.14 215.889C700.125 216.048 694.111 216.208 688.097 216.546C685.801 216.675 683.505 216.812 681.208 216.948C677.919 217.144 674.63 217.34 671.339 217.513C668.763 217.649 666.186 217.781 663.607 217.846C663.142 217.857 662.537 217.922 661.876 217.992L661.876 217.992H661.876C660.277 218.163 658.353 218.368 657.313 217.943C656.063 217.432 655.052 216.717 655.739 215.202C656.321 213.92 658.434 214.074 659.974 214.186C660.395 214.217 660.773 214.244 661.065 214.238C665.989 214.143 670.902 213.866 675.817 213.566C677.615 213.455 679.412 213.342 681.209 213.229L681.21 213.229L681.21 213.229L681.21 213.229L681.21 213.229C690.567 212.641 699.915 212.053 709.295 211.893C718.959 211.728 728.617 211.397 738.276 211.065ZM799.065 287.668L802.411 287.628C804.139 287.778 804.912 289.592 803.803 290.986C802.953 292.054 799.684 292.102 797.553 292.134C796.962 292.142 796.459 292.15 796.119 292.177C790.556 292.624 785.004 292.825 779.424 292.879C767.674 292.991 755.968 293.494 744.237 294.163C732.229 294.848 720.211 295.105 708.192 295.363H708.191C699.349 295.552 690.506 295.742 681.667 296.101C676.605 296.307 671.542 296.461 666.478 296.594C665.934 296.608 665.21 296.686 664.391 296.774C661.192 297.12 656.544 297.622 655.491 295.081C654.556 292.827 655.855 291.789 657.755 291.317C657.455 289.982 657.511 288.106 657.543 287.031C657.552 286.708 657.56 286.457 657.555 286.316C657.507 284.968 657.473 283.62 657.44 282.272C657.402 280.745 657.365 279.218 657.306 277.691C657.253 276.306 657.203 274.919 657.153 273.532C656.957 268.059 656.761 262.573 656.34 257.123C656.145 254.607 655.837 252.121 655.529 249.639C655.038 245.676 654.547 241.724 654.525 237.678C654.521 236.95 654.484 236.04 654.443 235.013C654.233 229.761 653.901 221.457 657.161 218.928C662.91 215.574 661.774 225.256 661.266 229.578C661.183 230.291 661.116 230.858 661.1 231.197C660.77 238.383 661.218 245.252 661.942 252.392C662.43 257.214 662.145 262.02 661.859 266.834C661.757 268.553 661.655 270.274 661.588 271.996C661.555 272.848 661.526 273.7 661.496 274.552C661.406 277.172 661.315 279.791 661.118 282.409C661.096 282.692 661.089 283.235 661.08 283.929C661.054 285.887 661.013 289.044 660.594 290.961C661.486 290.922 662.352 290.932 663.067 290.94C663.523 290.945 663.917 290.949 664.219 290.94C665.591 290.898 666.964 290.858 668.337 290.818C672.39 290.699 676.444 290.58 680.497 290.428C690.065 290.068 699.636 289.948 709.207 289.828C720.512 289.686 731.816 289.544 743.115 289.007C761.737 288.122 780.423 287.895 799.065 287.668ZM802.519 217.42C802.509 229.729 803.461 241.7 804.573 253.96C805.261 261.543 805.812 269.155 806.251 276.757C806.272 277.109 806.268 277.696 806.265 278.432V278.433C806.242 282.637 806.194 291.695 810.349 289.528C813.486 287.892 812.28 278.405 811.613 273.155L811.613 273.155C811.467 272.004 811.346 271.056 811.303 270.44C811.212 269.127 811.122 267.815 811.032 266.502C810.614 260.408 810.197 254.318 809.647 248.231L809.531 246.947C808.895 239.917 808.259 232.891 808.146 225.827C808.137 225.243 808.193 224.43 808.257 223.511C808.44 220.851 808.685 217.31 807.58 215.898C806.026 213.911 802.522 214.498 802.519 217.42Z" fill="#69A1AC"/>
<path fill-rule="evenodd" clip-rule="evenodd" d="M738.808 247.595C753.674 240.869 768.714 234.065 784.174 229.22C785.291 228.87 785.998 230.022 785.744 230.989C785.482 231.985 783.064 232.835 781.46 233.399C780.98 233.568 780.573 233.711 780.319 233.824C778.16 234.789 775.995 235.741 773.83 236.694C771.613 237.669 769.396 238.645 767.185 239.633C762.587 241.687 757.985 243.733 753.383 245.778C748.454 247.968 743.526 250.158 738.603 252.36C738.416 252.443 738.229 252.527 738.043 252.61C744.737 254.989 751.393 257.474 758.02 260.035C760.285 260.909 762.542 261.803 764.799 262.696C766.076 263.201 767.352 263.706 768.631 264.208C769.047 264.371 769.772 264.593 770.643 264.859C773.481 265.725 777.871 267.066 778.196 268.42C778.724 270.626 772.662 268.492 770.376 267.687C770.072 267.58 769.835 267.497 769.689 267.45C766.314 266.371 762.98 265.17 759.648 263.969L759.187 263.802C756.545 262.851 753.908 261.889 751.271 260.927C746.119 259.049 740.968 257.17 735.788 255.368C735.056 255.113 734.323 254.859 733.59 254.606C725.278 258.34 716.982 262.109 708.714 265.938C704.28 267.992 699.871 270.093 695.473 272.222C694.513 272.687 693.325 273.405 692.033 274.186C688.939 276.056 685.255 278.283 682.721 278.227C681.362 278.197 680.446 277.906 680.304 276.259C680.158 274.559 682.339 273.668 683.907 273.027C684.282 272.873 684.622 272.734 684.887 272.602C689.587 270.251 694.316 267.96 699.059 265.698C708.479 261.205 717.987 256.891 727.529 252.663C727.583 252.639 727.638 252.615 727.693 252.59C722.401 250.8 717.095 249.051 711.777 247.34C711.246 247.169 710.157 246.868 708.726 246.471C701.965 244.599 687.563 240.61 688.204 238.28C688.939 235.615 702.442 240.486 708.419 242.643C709.54 243.047 710.396 243.356 710.854 243.502C718.001 245.779 725.128 248.121 732.218 250.57C734.411 249.585 736.608 248.591 738.808 247.595Z" fill="#89C5CC"/>
<path fill-rule="evenodd" clip-rule="evenodd" d="M675.108 306.133C679.459 306.896 682.529 311.071 682.052 315.442C681.406 321.349 675.519 324.056 670.08 323.286C663.909 322.411 662.611 317.194 665.601 312.176C666.263 311.065 667.024 309.735 668.228 309.15C669.055 308.748 670.109 309.103 670.775 308.779C673.111 307.643 671.706 305.831 675.108 306.133M673.126 302.275C667.816 302.953 658.004 309.098 658.501 315.246C658.932 315.959 659.58 316.25 660.445 316.121C660.237 317.453 660.305 318.77 660.649 320.074C661.153 321.766 662.159 323.153 663.508 324.254C666.285 326.524 670.081 327.081 673.539 326.683C679.996 325.941 685.084 321.528 685.447 314.812C685.801 308.257 680.079 301.397 673.126 302.275" fill="#89C5CC"/>
<path fill-rule="evenodd" clip-rule="evenodd" d="M698.846 310.275C696.463 311.537 692.694 313.477 691.297 315.875C689.821 318.408 691.349 321.179 694.459 319.981C696.928 319.03 698.498 316.008 701.132 315.039C703.456 314.184 704.392 314.62 706.849 315.471C709.38 316.348 711.592 317.196 714.328 316.98C717.767 316.71 720.745 314.716 724.111 314.263C726.945 313.881 729.282 314.983 731.996 315.422C735.145 315.931 737.204 314.739 740.15 314.118C742.154 313.696 745.686 315.414 747.148 314.771C750.434 313.326 746.957 311.56 745.138 310.976C742.073 309.993 740.187 310.86 737.272 311.676C734.107 312.561 732.74 311.895 729.714 311.082C723.593 309.438 718.864 313.415 713.062 312.692C707.691 312.022 704.476 307.293 698.846 310.275" fill="#89C5CC"/>
<path fill-rule="evenodd" clip-rule="evenodd" d="M798.935 307.336C804.827 312.86 798.208 320.719 791.712 316.305C789.426 314.751 789.389 312.255 791.168 310.022C792.796 307.98 796.371 307.184 798.935 307.336V307.336ZM796.751 302.873C791.247 303.943 786.054 306.469 785.556 312.822C785.07 319.021 791.428 321.899 796.769 321.493C808.76 320.58 807.893 300.719 796.751 302.873V302.873Z" fill="#89C5CC"/>
</g>
<g opacity="0.5">
<path fill-rule="evenodd" clip-rule="evenodd" d="M464.509 344.362C456.085 344.456 447.665 344.767 439.257 345.299C431.262 345.806 422.587 345.421 414.722 346.971C412.488 347.411 409.471 349.446 412.441 351.685C414.528 353.259 422.165 351.449 424.657 351.296C433.836 350.731 443.02 350.056 452.212 349.731C460.914 349.423 469.615 349.315 478.322 349.228C479.651 349.215 481.857 348.789 483.181 349.175C485.083 349.729 484.632 349.88 484.774 352.294C485.032 356.668 484.961 361.058 484.874 365.436C484.79 369.673 484.633 373.909 484.649 378.148C484.659 381.172 483.693 387.181 485.21 389.808C487.394 393.588 489.66 389.482 489.823 386.97C490.136 382.165 489.996 377.302 489.997 372.491C489.998 367.976 490.031 363.46 489.872 358.947C489.756 355.687 490.222 349.996 488.466 347.032C486.677 344.013 482.371 344.664 479.228 344.52C474.326 344.295 469.415 344.311 464.509 344.362" fill="#89C5CC"/>
<path fill-rule="evenodd" clip-rule="evenodd" d="M410.91 349.81C410.919 358.295 409.937 366.722 409.662 375.197C409.536 379.093 409.28 383.371 410.266 387.196C411.261 391.058 414.421 391.895 414.785 387.583C415.522 378.853 415.342 369.8 415.915 361C416.118 357.892 417.437 352.198 416.206 349.289C415.122 346.726 410.905 346.234 410.91 349.81" fill="#89C5CC"/>
<path fill-rule="evenodd" clip-rule="evenodd" d="M489.906 387.208C475.276 389.144 459.982 388.438 445.247 388.743C438.178 388.889 431.111 388.898 424.041 388.972C421.573 388.997 415.307 388.059 413.173 389.446C409.775 391.654 413.461 393.358 415.711 393.407C429.663 393.712 443.771 393.071 457.72 392.613C463.987 392.407 470.275 392.307 476.526 391.774C480.374 391.446 484.579 391.128 488.316 390.094C489.112 389.874 490.846 389.919 491.024 388.833C491.134 388.162 490.935 387.066 489.906 387.208" fill="#89C5CC"/>
<path fill-rule="evenodd" clip-rule="evenodd" d="M429.07 399.54C425.004 399.564 412.751 397.675 411.067 401.64C408.822 406.928 417.58 405.694 419.935 405.633C425.285 405.496 430.63 405.481 435.981 405.484C441.231 405.486 446.481 405.452 451.73 405.327C453.251 405.291 456.791 405.922 457.666 404.091C458.331 402.699 457.805 401.601 456.579 400.864C453.628 399.091 445.963 400.119 442.509 399.96C438.036 399.754 433.548 399.54 429.07 399.54" fill="#89C5CC"/>
<path fill-rule="evenodd" clip-rule="evenodd" d="M478.537 400.519C476.213 400.657 471.513 399.699 469.431 400.763C467.065 401.972 467.899 403.864 469.941 404.696C471.356 405.272 477.159 404.97 478.537 404.303C479.973 403.607 481.597 400.331 478.537 400.519" fill="#89C5CC"/>
<path fill-rule="evenodd" clip-rule="evenodd" d="M504.013 350.643C501.531 351.324 502.284 365.414 502.22 367.647C502.045 373.767 501.357 381.464 503.39 387.358C504.687 391.115 507.178 390.605 506.753 386.65C506.381 383.178 505.741 379.746 505.464 376.252C504.839 368.345 503.987 359.911 504.578 351.997C504.83 352.457 507.184 356.722 507.738 356.403C507.571 356.503 505.023 350.377 504.013 350.643" fill="#89C5CC"/>
<path fill-rule="evenodd" clip-rule="evenodd" d="M531.93 345.453C526.907 345.528 521.885 345.617 516.864 345.756C512.871 345.867 506.598 345.211 502.937 346.891C498.577 348.89 500.645 353.345 504.74 353.439C508.363 353.523 512.226 352.706 515.881 352.581C525.754 352.243 535.645 352.171 545.522 352.086C554.456 352.009 563.769 352.962 572.624 351.62C573.937 363.283 570.385 374.995 571.593 386.792C571.78 388.623 571.696 391.21 574.028 391.627C576.971 392.154 577.092 389.239 577.203 387.152C577.522 381.193 577.349 375.229 577.786 369.262C578.19 363.732 578.986 358.081 578.313 352.542C577.486 345.727 574.22 346.273 568.447 345.99C556.254 345.392 544.137 345.274 531.93 345.453" fill="#89C5CC"/>
<path fill-rule="evenodd" clip-rule="evenodd" d="M515.098 386.866C512.538 386.931 508.288 386.142 506.648 388.596C504.942 391.15 506.966 393.377 509.447 393.901C512.384 394.521 516.213 393.671 519.261 393.662C522.435 393.652 525.61 393.688 528.784 393.7C542.392 393.753 556.058 393.959 569.657 393.397C571.556 393.318 576.946 393.955 578.26 392.133C579.427 390.518 578.611 389.069 577.074 388.246C574.554 386.895 569.378 387.409 566.575 387.302C563.113 387.17 559.646 387.127 556.183 387.073C542.511 386.862 528.768 386.528 515.098 386.866" fill="#89C5CC"/>
<path fill-rule="evenodd" clip-rule="evenodd" d="M526.609 398.67C521.517 398.757 516.083 398.534 511.041 399.306C506.608 399.985 506.062 404.271 510.834 404.772C515.22 405.233 520.537 404.372 524.944 404.089C526.509 403.988 528.329 404.131 529.079 402.401C529.862 400.593 528.365 398.859 526.609 398.67" fill="#89C5CC"/>
<path fill-rule="evenodd" clip-rule="evenodd" d="M565.108 399.12C562.39 399.188 554.451 398.019 553.104 401.124C550.863 406.292 561.611 404.329 563.673 404.253C566.272 404.157 576.4 405.675 576.402 401.538C576.404 397.481 567.597 399.059 565.108 399.12" fill="#89C5CC"/>
<path fill-rule="evenodd" clip-rule="evenodd" d="M410.47 424.804C410.477 434.207 409.891 443.697 410.749 453.076C411.104 456.955 411.043 464.386 413.29 467.674C414.885 470.008 417.097 469.845 417.968 467.042C418.55 465.168 417.619 461.421 417.515 459.416C417.415 457.493 417.298 455.57 417.209 453.646C416.98 448.688 416.999 443.739 417.067 438.779C417.125 434.524 418.149 428.895 417.184 424.804C416.283 420.991 410.47 420.099 410.47 424.804" fill="#69A1AC"/>
<path fill-rule="evenodd" clip-rule="evenodd" d="M504.967 416.532C488.654 416.941 472.304 416.576 456.006 417.383C447.968 417.781 439.961 418.656 431.963 419.527C428.034 419.956 424.107 420.398 420.185 420.881C419.001 421.027 409.166 421.408 412.865 425.148C414.48 426.782 419.62 425.076 421.654 424.835C425.593 424.37 429.539 423.965 433.482 423.548C440.987 422.754 448.5 422.002 456.037 421.585C473.786 420.601 491.609 420.896 509.375 420.241C514.181 420.064 518.973 419.937 523.781 420.126C525.043 420.175 534.321 420.647 530.293 417.22C528.388 415.6 521.207 416.436 518.827 416.387C514.207 416.292 509.585 416.416 504.967 416.532" fill="#69A1AC"/>
<path fill-rule="evenodd" clip-rule="evenodd" d="M527.205 432.373C527.125 428.029 527.044 423.685 526.846 419.344C526.638 414.773 532.865 414.081 534.711 417.781C536.041 420.445 535.807 424.977 535.606 428.862C535.526 430.427 535.45 431.888 535.485 433.078C535.564 435.806 535.765 438.628 535.968 441.486C536.48 448.68 537.009 456.111 535.664 462.902C535.01 466.202 532.227 467.936 530.374 466.138C530.371 466.141 530.369 466.145 530.366 466.149C529.669 467.176 527.5 467.174 525.902 467.172C525.462 467.172 525.065 467.171 524.755 467.192C520.378 467.49 516.082 467.992 511.743 468.642C503.099 469.938 494.53 470.734 485.793 470.95C479.864 471.097 473.927 471.146 467.989 471.196C456.617 471.29 445.24 471.384 433.904 472.162C430.082 472.425 426.319 472.875 422.56 473.594C422.24 473.655 421.884 473.734 421.506 473.819C418.711 474.44 414.664 475.34 414.388 471.434C414.059 466.798 424.107 466.19 429.278 465.878C430.068 465.83 430.744 465.789 431.251 465.742C446.952 464.282 462.899 464.508 478.666 464.732C479.43 464.742 480.194 464.753 480.957 464.764C482.187 464.781 483.417 464.801 484.647 464.821C491.398 464.933 498.141 465.044 504.889 464.631C507.96 464.443 511.072 464.346 514.189 464.25C519.162 464.096 524.149 463.941 529.013 463.414C528.279 460.57 528.151 457.214 528.03 454.051C527.983 452.819 527.937 451.617 527.857 450.485C527.43 444.456 527.317 438.415 527.205 432.373Z" fill="#69A1AC"/>
<path fill-rule="evenodd" clip-rule="evenodd" d="M540.408 422.693C538.204 422.992 536.366 424.879 537.35 427.271C538.589 430.283 542.28 429.106 544.718 428.915C552.468 428.308 560.56 429.521 568.217 428.606C570.308 428.356 573.341 427.217 571.464 424.407C570.053 422.296 564.911 422.666 562.725 422.464C555.25 421.772 547.873 421.957 540.408 422.693" fill="#C1DEE2"/>
<path fill-rule="evenodd" clip-rule="evenodd" d="M553.488 435.834C550.483 436.036 543.486 435.877 542.219 439.297C539.947 445.432 548.846 443.27 551.556 442.921C554.703 442.516 562.124 443.601 563.8 440.549C566.796 435.091 556.124 435.652 553.488 435.834" fill="#C1DEE2"/>
<path fill-rule="evenodd" clip-rule="evenodd" d="M545.759 449.298C544.333 450.724 544.331 453.271 545.759 454.698C547.507 456.445 551.317 456.082 553.614 456.209C556.818 456.388 566.021 458.083 567.612 454.31C569.759 449.219 561.425 449.326 558.684 449.037C555.516 448.704 548.385 446.671 545.759 449.298" fill="#C1DEE2"/>
<path fill-rule="evenodd" clip-rule="evenodd" d="M433.437 362.159C433.437 367.632 441.985 367.632 441.985 362.159C441.985 356.715 433.437 356.632 433.437 362.159" fill="#89C5CC"/>
<path fill-rule="evenodd" clip-rule="evenodd" d="M449.651 362.221C449.651 368.478 459.388 368.465 459.388 362.221C459.388 355.986 449.651 355.922 449.651 362.221" fill="#89C5CC"/>
<path fill-rule="evenodd" clip-rule="evenodd" d="M439.842 370.54C435.11 371.847 439.47 375.858 441.667 376.774C445.16 378.23 449.927 379.304 453.42 377.12C454.81 376.251 455.938 375.097 454.92 373.411C453.834 371.615 452.349 372.414 450.696 372.579C448.603 372.79 446.911 372.757 444.89 372.086C443.381 371.585 441.488 370.087 439.842 370.54" fill="#89C5CC"/>
<path fill-rule="evenodd" clip-rule="evenodd" d="M525.69 362.505C525.69 366.207 531.438 366.207 531.438 362.505C531.438 358.803 525.69 358.803 525.69 362.505" fill="#89C5CC"/>
<path fill-rule="evenodd" clip-rule="evenodd" d="M538.402 363.062C538.402 367.175 544.788 367.176 544.788 363.062C544.788 358.949 538.402 358.95 538.402 363.062" fill="#89C5CC"/>
<path fill-rule="evenodd" clip-rule="evenodd" d="M537.929 371.988C534.575 372.421 524.873 373.404 524.33 377.539C523.493 383.918 534.123 378.755 536.549 378.254C539.64 377.616 542.399 377.783 545.484 377.907C547.178 377.974 549.431 378.249 549.253 375.669C548.962 371.432 540.861 371.613 537.929 371.988" fill="#89C5CC"/>
<path fill-rule="evenodd" clip-rule="evenodd" d="M453.592 430.814C451.16 431.463 447.98 435.666 449.653 438.239C452.396 442.458 453.605 435.98 454.753 435.356C456.842 434.222 458.537 438.368 460.72 436.193C464.164 432.761 455.76 430.234 453.592 430.814" fill="#69A1AC"/>
<path fill-rule="evenodd" clip-rule="evenodd" d="M481.45 427.696C478.567 427.722 472.48 431.805 472.049 434.818C471.793 436.61 472.98 438.33 474.911 438.354C477.54 438.386 478.375 434.968 480.654 434.253C483.112 433.482 482.747 435.258 484.87 436.178C486.424 436.852 488.367 436.57 488.907 434.66C489.925 431.057 484.413 427.639 481.45 427.696" fill="#69A1AC"/>
<path fill-rule="evenodd" clip-rule="evenodd" d="M459.38 444.954C454.768 447.656 462.356 453.449 464.987 454.174C468.958 455.267 476.951 453.226 477.893 448.375C478.267 446.444 477.059 444.695 474.929 445.041C473.174 445.326 472.049 447.527 470.424 448.315C468.23 449.378 466.28 449.306 464.417 447.705C462.898 446.4 462.085 443.376 459.38 444.954" fill="#69A1AC"/>
<path fill-rule="evenodd" clip-rule="evenodd" d="M462.722 484.885C458.602 485.764 454.413 485.174 450.273 486.001C446.051 486.843 443.528 488.438 439.606 486.831C439.421 486.753 439.237 486.676 439.053 486.598C436.017 485.29 432.835 484.903 429.658 486.987C427.777 488.22 422.068 492.486 422.756 495.089C424.247 500.732 430.671 491.883 432.309 491.021C435.433 489.376 437.574 491.477 440.79 492.07C444.642 492.78 447.741 490.745 451.37 489.934C455.613 488.986 460.387 488.656 464.705 488.148C466.41 487.948 472.871 489.297 473.454 487.174C474.456 483.528 464.342 484.542 462.722 484.885" fill="#C1DEE2"/>
<path fill-rule="evenodd" clip-rule="evenodd" d="M492.449 496.25C492.719 496.454 492.503 496.29 492.449 496.25ZM503.989 484.665C507.517 484.307 518.802 481.787 521.12 485.432C522.629 487.806 520.234 496.569 517.949 497.702C516.122 498.607 511.869 497.606 509.865 497.535C506.136 497.404 502.4 497.346 498.675 497.113C497.426 497.035 493.407 497.265 492.428 496.159C491.272 494.854 491.323 487.895 491.051 486.169C494.294 487.219 500.598 485.009 503.989 484.665M511.521 481.091C507.004 481.287 502.487 481.627 498.003 482.232C495.504 482.57 492.971 483.468 490.663 483.894C489.919 484.031 488.711 483.65 487.799 484.091C485.132 485.379 487.467 494.089 488.11 496.415C489.098 499.99 491.583 500.569 495.066 500.905C499.653 501.35 504.334 501.21 508.936 501.154C513.371 501.099 519.352 502.082 521.841 497.632C523.45 494.754 525.175 488.053 523.8 484.846C521.991 480.626 515.236 480.935 511.521 481.091" fill="#C1DEE2"/>
<path fill-rule="evenodd" clip-rule="evenodd" d="M562.111 498.644C561.869 498.954 561.869 498.954 562.111 498.644ZM563.101 497.45C563.026 497.564 562.679 497.93 563.101 497.45ZM552.327 497.123C554.319 496.748 556.311 496.377 558.304 496.013C556.417 498.656 554.428 497.564 551.203 497.334C551.578 497.263 551.953 497.193 552.327 497.123M542.826 496.187C543.331 496.018 543.836 495.85 544.341 495.681C544.325 496.065 544.408 496.425 544.588 496.76C543.724 496.667 542.861 496.566 541.998 496.46C542.274 496.369 542.551 496.278 542.826 496.187M538.424 492.936C538.396 492.243 539.438 492.719 540.036 492.672C538.884 493.686 538.346 493.775 538.424 492.936M554.169 485.072C554.321 484.878 554.522 484.888 554.772 485.101C554.499 485.193 553.449 485.638 554.169 485.072M564.38 483.871C564.407 483.871 564.974 484.636 564.38 483.871ZM564.094 483.62C564.242 483.734 564.242 483.734 564.094 483.62ZM562.819 483.472C564.907 483.824 564.748 486.274 562.819 483.472ZM538.291 483.304C537.867 483.657 538.012 483.315 538.291 483.304ZM546.275 478.088C542.73 478.294 536.224 478.087 533.264 479.975C529.401 482.44 531.434 490.926 531.779 494.646C532.29 500.144 534.877 501.71 540.056 502.287C546.236 502.976 552.585 503.104 558.797 502.941C564.391 502.794 567.577 500.87 568.602 494.98C568.916 493.178 569.712 490.39 569.687 488.663C569.67 487.466 569.073 486.92 568.847 485.902C567.563 480.105 565.414 479.418 559.473 479.165C555.1 478.979 550.566 477.863 546.275 478.088" fill="#89C5CC"/>
</g>
<g opacity="0.5">
<path fill-rule="evenodd" clip-rule="evenodd" d="M734.032 344.913C743.044 345.105 753.268 350.093 751.843 360.659C750.799 368.399 744.098 374.682 736.336 375.224C727.994 375.806 719.174 369.404 718.041 360.91C716.766 351.357 725.22 344.722 734.032 344.913M729.613 340.612C725.959 341.157 722.468 343.076 719.251 344.794C718.023 345.451 711.798 349.452 716.681 350.446C704.916 369.419 732.603 387.043 748.17 374.712C755.161 369.174 758.841 358.675 754.322 350.457C749.649 341.957 738.566 339.267 729.613 340.612" fill="#89C5CC"/>
<path fill-rule="evenodd" clip-rule="evenodd" d="M727.459 356.762C727.459 360.306 732.96 360.306 732.96 356.762C732.96 353.218 727.459 353.218 727.459 356.762" fill="#89C5CC"/>
<path fill-rule="evenodd" clip-rule="evenodd" d="M737.657 357.329C737.657 361.171 743.621 361.171 743.621 357.329C743.621 353.488 737.657 353.488 737.657 357.329" fill="#89C5CC"/>
<path fill-rule="evenodd" clip-rule="evenodd" d="M730.775 364.927C729.973 367.842 739.123 369.337 739.428 365.964C739.573 364.352 731.333 362.894 730.775 364.927" fill="#89C5CC"/>
<path fill-rule="evenodd" clip-rule="evenodd" d="M757.599 363.126C768.129 361.863 778.985 362.446 789.565 362.749C792.213 362.826 794.86 362.9 797.509 362.944C799.192 362.972 802.828 363.78 804.298 362.992C810.315 359.766 798.511 358.205 796.84 358.057C786.316 357.191 770.075 356.882 759.52 357.291C756.398 357.412 755.723 363.351 757.599 363.126" fill="#89C5CC"/>
<path fill-rule="evenodd" clip-rule="evenodd" d="M804.98 415.469C805.07 404.437 805.466 393.33 806.314 382.33C806.659 377.847 807.074 373.37 807.417 368.886C807.579 366.775 808.329 363.817 807.088 361.964C805.809 360.055 803.003 359.658 801.312 361.35C799.288 363.97 799.876 368.367 799.624 371.537C799.237 376.41 798.77 381.28 798.537 386.164C798.088 395.616 797.983 405.233 798.743 414.673C799.101 419.127 799.879 423.473 800.914 427.817C801.385 429.795 805.132 438.603 804.345 439.818C803.124 441.702 794.099 440.99 792.141 441.042C787.117 441.177 782.092 441.265 777.067 441.361C772.765 441.443 768.463 441.502 764.16 441.54C762.452 441.555 752.414 441.251 754.641 443.784C729.741 445.519 704.366 442.622 679.618 441.629C678.368 441.578 676.323 441.223 674.435 441.121C674.209 440.209 674.023 439.395 673.977 438.828C673.652 434.851 673.567 430.86 673.214 426.884C672.569 419.608 671.318 412.407 670.574 405.144C669.831 397.889 669.906 390.612 669.473 383.339C669.399 382.093 669.224 371.885 666.648 369.404C667.869 369.867 669.839 369.928 670.973 369.836C680.153 369.096 689.266 367.5 698.368 366.131C700.972 365.74 706.881 366.017 709.041 364.716C710.91 363.589 711.65 359.638 708.398 359.958C699.322 360.93 690.296 362.439 681.292 363.924C678.883 364.321 676.481 364.746 674.079 365.18C672.475 365.47 668.241 365.448 666.997 366.415C665.486 367.589 665.326 368.388 665.838 368.919C665.126 368.723 664.273 369.031 663.248 370.056C661.31 372.578 663.132 378.789 663.363 381.746C663.64 385.293 663.777 388.845 663.938 392.399C664.25 399.275 664.97 406.056 666.076 412.85C667.316 420.46 668.371 428.102 669.614 435.71C669.937 437.691 670.359 439.623 670.898 441.537C667.549 443.249 669.826 445.973 672.481 446.456C672.5 446.46 672.52 446.462 672.539 446.466C673.367 448.485 674.525 450.355 675.429 447.65C675.498 447.442 675.531 447.187 675.539 446.9C682.398 447.676 689.938 447.194 696.691 447.47C711.319 448.068 726.037 448.965 740.68 448.51C746.477 448.33 752.291 447.815 758.039 447.042C761.407 446.589 764.788 446.048 768.102 445.297C768.339 445.243 768.7 445.187 769.117 445.118C769.185 445.116 769.254 445.114 769.318 445.114C774.393 445.037 779.463 444.901 784.533 444.69C788.789 444.513 793.064 444.422 797.306 444.021C799.941 443.772 805.51 443.818 807.127 441.168C808.598 438.759 806.139 432.552 805.79 429.846C805.176 425.08 804.941 420.27 804.98 415.469" fill="#C1DEE2"/>
<path fill-rule="evenodd" clip-rule="evenodd" d="M753.556 383.614C749.501 383.961 745.752 385.865 741.66 385.889C738.225 385.908 734.844 384.882 731.39 385.034C727.339 385.21 725.11 387.83 721.562 388.707C718.737 389.404 716.957 387.241 714.472 386.285C711.335 385.077 709.017 385.701 706.328 387.528C704.352 388.87 699.744 391.883 699.78 394.599C699.886 402.825 709.483 391.462 711.417 391.324C713.988 391.141 716.86 394.071 719.595 394.238C723.211 394.459 725.529 392.128 728.859 391.279C732.226 390.42 735.866 391.472 739.242 391.799C743.093 392.171 746.464 391.313 750.19 390.394C753.801 389.503 756.878 389.55 760.547 390.298C763.023 390.803 769.192 393.739 770.276 389.964C771.751 384.823 756.39 383.373 753.556 383.614" fill="#89C5CC"/>
<path fill-rule="evenodd" clip-rule="evenodd" d="M754.79 399.302C746.482 400.109 738.123 400.816 729.777 401.042C726.162 401.141 712.266 399.591 713.498 404.185C714.555 408.123 733.465 405.643 737.317 405.343C741.569 405.013 745.814 404.551 750.046 404.016C751.545 403.826 755.166 404.022 756.224 402.765C757.233 401.565 756.736 399.108 754.79 399.302" fill="#89C5CC"/>
<path fill-rule="evenodd" clip-rule="evenodd" d="M697.475 420.221C697.286 420.301 697.286 420.301 697.475 420.221ZM699.228 420.197C701.299 420.132 700.855 419.04 702.921 419.609C703.874 419.871 703.972 419.482 704.711 420.393C706.152 422.17 704.795 426.039 703.374 427.471C698.113 432.773 691.799 420.433 699.228 420.197M699.228 414.995C684.825 415.479 690.851 437.728 703.387 433.186C708.564 431.311 711.818 422.861 708.773 418.112C707.292 415.802 705.403 415.391 702.921 415.231C702.345 415.194 701.62 416.031 701.261 415.993C700.406 415.903 700.486 414.948 699.228 414.995" fill="#89C5CC"/>
<path fill-rule="evenodd" clip-rule="evenodd" d="M733.671 420.983C733.414 420.904 738.219 422.301 737.693 421.754C738.815 422.921 737.306 425.68 736.037 426.161C732.964 427.328 731.24 422.549 733.671 420.983M735.803 414.95C731.293 415.589 727.813 417.467 727.196 422.482C726.628 427.111 729.755 431.799 734.689 431.889C745.442 432.086 745.769 413.56 735.803 414.95" fill="#89C5CC"/>
<path fill-rule="evenodd" clip-rule="evenodd" d="M784.893 421.186C785.522 429.406 776.999 421.882 784.893 421.186ZM781.235 412.392C780.489 413.666 781.125 415.018 782.25 415.759C772.196 417.884 774.473 433.013 784.704 430.778C789.907 429.641 790.863 424.171 790.088 419.653C789.719 417.505 784.366 407.038 781.235 412.392" fill="#89C5CC"/>
</g>
<path opacity="0.5" fill-rule="evenodd" clip-rule="evenodd" d="M893.94 472.988C887.115 473.875 870.982 479.386 871.123 485.304C871.341 494.542 885.053 484.451 888.103 483.094C904.487 475.804 925.709 485.251 942.77 487.261C950.592 488.182 965.893 489.885 972.803 486.053C985.089 479.237 956.674 480.943 953.055 480.669C933.384 479.184 913.815 470.392 893.94 472.988" fill="#C1DEE2"/>
<g opacity="0.5">
<path fill-rule="evenodd" clip-rule="evenodd" d="M946.586 381.268C946.583 386.946 946.296 392.742 947.343 398.352C947.66 400.051 947.91 403.304 949.701 404.185C951.501 405.07 953.246 404.076 953.693 402.231C954.215 400.085 953.071 396.872 952.955 394.619C952.796 391.54 952.785 388.458 952.784 385.376C952.783 383.15 953.515 379.569 950.887 378.424C948.934 377.572 946.586 379.156 946.586 381.268" fill="#C1DEE2"/>
<path fill-rule="evenodd" clip-rule="evenodd" d="M1036.35 372.287C1017.54 374.176 998.457 374.568 979.576 375.553C970.849 376.008 960.301 375.427 952.079 378.805C950.552 379.433 945.084 382.925 949.523 384.347C950.907 384.79 952.313 383.299 953.449 382.8C955.341 381.969 957.532 381.712 959.55 381.387C976.706 378.632 994.651 379.112 1011.98 377.824C1016.43 377.494 1020.87 377.155 1025.3 376.719C1028.47 376.407 1035.12 374.125 1038.04 375.292C1043.04 377.287 1042.92 390.247 1043.02 394.704C1043.07 397.009 1040.83 405.283 1045.28 404.444C1048.84 403.773 1047.55 395.177 1047.27 392.826C1046.55 386.662 1045.3 371.38 1036.35 372.287" fill="#C1DEE2"/>
<path fill-rule="evenodd" clip-rule="evenodd" d="M1043.29 404.146C1026.95 405.621 1010.23 404.173 993.824 404.754C985.224 405.058 976.632 405.543 968.03 405.827C964.31 405.95 960.586 405.955 956.864 405.982C955.084 405.994 946.983 407.073 951.994 410.602C954.213 412.165 961.285 410.906 963.831 410.876C967.656 410.831 971.478 410.672 975.3 410.522C984.152 410.176 992.999 409.696 1001.86 409.457C1010.33 409.227 1018.8 409.178 1027.28 408.949C1031.49 408.834 1035.77 408.705 1039.94 408.09C1040.89 407.951 1043.95 407.84 1044.6 406.789C1045.22 405.795 1044.79 404.001 1043.29 404.146" fill="#89C5CC"/>
<path fill-rule="evenodd" clip-rule="evenodd" d="M962.979 391.877C962.891 392.085 962.891 392.085 962.979 391.877ZM970.055 389.726C970.313 389.835 970.313 389.835 970.055 389.726ZM969.724 389.666C973.537 393.553 967.673 398.193 964.101 394.4C960.309 390.373 967.269 389.679 969.724 389.666M965.679 383.786C952.544 386.123 957.194 403.629 969.463 401.099C974.849 399.989 977.929 394.563 976.075 389.351C975.351 387.314 973.772 385.079 971.574 384.438C970.478 384.118 969.508 384.621 968.464 384.503C967.468 384.391 966.915 383.563 965.679 383.786" fill="#C1DEE2"/>
<path fill-rule="evenodd" clip-rule="evenodd" d="M1015.95 388.713C1008.03 388.738 1000.11 389.074 992.187 389.225C989.758 389.27 983.514 388.183 983.505 392.013C983.494 396.105 990.449 394.594 992.763 394.539C1000.62 394.351 1008.49 394.007 1016.32 393.259C1018.3 393.07 1025.14 393.396 1025.13 390.708C1025.12 387.86 1017.55 388.713 1015.95 388.713" fill="#C1DEE2"/>
<path fill-rule="evenodd" clip-rule="evenodd" d="M1034.87 415.421C1015.28 415.947 995.718 416.13 976.144 417.133C968.822 417.508 961.51 417.787 954.178 417.787C952.766 417.787 949.922 417.24 948.593 418.129C944.986 420.541 949.093 422.612 951.444 422.742C967.525 423.634 983.838 421.413 999.909 420.912C1009.32 420.619 1018.73 420.532 1028.13 420.053C1030.7 419.923 1033.26 419.771 1035.82 419.572C1037.3 419.458 1041.19 419.771 1042.38 418.909C1047.58 415.147 1036.62 415.374 1034.87 415.421" fill="#89C5CC"/>
<path fill-rule="evenodd" clip-rule="evenodd" d="M944.986 425C944.801 430.079 944.782 435.07 945.447 440.121C945.708 442.108 945.828 444.364 948.158 444.869C950.274 445.327 951.347 443.727 951.785 441.953C952.855 437.62 951.914 431.384 951.901 426.882C951.896 424.657 951.893 422.166 949.143 421.663C947.045 421.279 945.066 422.795 944.986 425" fill="#89C5CC"/>
<path fill-rule="evenodd" clip-rule="evenodd" d="M1055.63 437.245C1023.92 438.916 992.252 440.375 960.518 441.716C958.043 441.821 938.817 441.612 945.538 448.316C947.614 450.387 952.963 448.984 955.648 448.853C959.682 448.655 963.719 448.503 967.754 448.298C983.75 447.483 999.789 447.264 1015.77 446.35C1024.57 445.847 1033.35 445.06 1042.1 444.036C1046.26 443.549 1051.43 443.599 1055.32 441.968C1057.33 441.129 1059.49 437.04 1055.63 437.245" fill="#89C5CC"/>
<path fill-rule="evenodd" clip-rule="evenodd" d="M1037.4 411.48C1034.99 413.882 1036.23 418.62 1036.41 421.589C1036.66 425.674 1036.96 429.762 1037.47 433.825C1037.81 436.464 1037.63 440.571 1039.04 442.851C1040.69 445.521 1044.32 445.225 1045.81 442.646C1047.13 440.365 1046.46 435.566 1046.42 433.038C1046.38 429.542 1046.16 426.041 1045.95 422.552C1045.78 419.637 1046.44 414.964 1044.84 412.469C1043.21 409.933 1039.66 409.232 1037.4 411.48" fill="#89C5CC"/>
<path fill-rule="evenodd" clip-rule="evenodd" d="M964.917 430.119C964.634 430.337 964.634 430.337 964.917 430.119ZM970.549 429.413C975.805 430.47 967.307 436.606 964.621 432.395C964.202 431.737 963.983 430.928 964.657 430.356C965.271 429.834 965.657 430.758 966.238 430.51C967.238 430.082 969.482 429.373 970.549 429.413M969.824 424.375C966.236 424.659 961.303 424.881 959.527 428.478C957.141 433.309 961.221 438.04 965.942 438.775C970.485 439.483 977.267 436.967 977.631 431.669C977.924 427.397 973.861 424.048 969.824 424.375" fill="#89C5CC"/>
<path fill-rule="evenodd" clip-rule="evenodd" d="M999.781 426.93C996.066 426.99 988.765 425.892 985.529 427.702C982.327 429.494 983.755 432.684 986.676 433.447C988.607 433.951 991.763 433.138 993.773 433.056C996.418 432.948 999.064 432.925 1001.71 432.888C1006.16 432.829 1010.61 432.879 1015.06 432.879C1019.61 432.879 1024.23 433.003 1028.77 432.669C1034.51 432.247 1034.35 427.947 1028.74 427.41C1019.2 426.497 1009.35 426.78 999.781 426.93" fill="#89C5CC"/>
<path fill-rule="evenodd" clip-rule="evenodd" d="M990.293 475.08C990.293 477.122 992.105 475.08 992.092 475.08C992.105 475.08 990.293 473.037 990.293 475.08" fill="#89C5CC"/>
<path fill-rule="evenodd" clip-rule="evenodd" d="M949.297 458.637C949.414 464.574 949.491 470.517 949.744 476.45C949.825 478.326 949.287 481.989 951.561 482.945C954.092 484.01 954.879 481.356 955.171 479.558C956.094 473.862 955.189 467.358 955.1 461.594C955.07 459.659 955.489 456.965 953.291 456C951.498 455.212 949.261 456.674 949.297 458.637" fill="#89C5CC"/>
<path fill-rule="evenodd" clip-rule="evenodd" d="M1046.94 458.73C1047.09 459.084 1047.09 459.084 1046.94 458.73ZM1047.15 458.67C1047.27 458.72 1047.76 458.927 1047.15 458.67ZM999.183 453.871C990.069 454.014 980.948 454.122 971.839 454.512C967.952 454.679 964.019 454.813 960.145 455.18C957.401 455.44 950.585 455.547 948.805 457.79C945.132 462.419 952.92 461.156 954.598 460.78C957.651 460.096 960.767 459.877 963.886 459.712C970.653 459.355 977.423 459.164 984.199 459.028C1002.57 458.658 1020.96 458.714 1039.34 458.632C1041.12 458.624 1044.33 457.908 1045.98 458.628C1047.62 459.349 1047.53 461.123 1047.7 463.182C1047.93 465.922 1046.12 471.143 1047.5 473.448C1049.64 477.023 1052.74 473.987 1053.22 471.381C1053.87 467.78 1052.83 463.456 1051.82 460.013C1050.38 455.157 1048.39 454.964 1043.69 454.584C1038.2 454.141 1032.73 453.872 1027.22 453.821C1017.88 453.735 1008.53 453.726 999.183 453.871" fill="#89C5CC"/>
<path fill-rule="evenodd" clip-rule="evenodd" d="M1035.23 478.414C1015.46 480.71 995.132 479.357 975.257 479.438C970.424 479.458 965.587 479.497 960.758 479.731C958.208 479.854 952.163 479.151 950.415 481.119C946.732 485.266 953.367 485.869 955.789 485.698C960.686 485.349 965.594 485.191 970.504 485.153C987.796 485.019 1005.19 485.826 1022.47 484.973C1029.7 484.615 1036.78 483.377 1043.89 481.993C1045.46 481.687 1056.24 479.638 1050.09 477.183C1046.46 475.732 1039.05 477.969 1035.23 478.414" fill="#89C5CC"/>
<path fill-rule="evenodd" clip-rule="evenodd" d="M977.512 470.822C977.374 470.999 977.374 470.999 977.512 470.822ZM977.38 470.791C977.333 470.918 977.187 471.232 977.38 470.791ZM976.133 469.183C976.161 469.22 976.279 469.371 976.133 469.183ZM976.085 469.171C976.561 469.739 976.881 470.373 977.046 471.072C972.95 472.182 971.372 468.868 976.085 469.171M975.825 469.016C975.827 469.017 976.403 469.259 975.825 469.016ZM969.097 464.079C966.446 467.38 964.257 471.227 967.563 474.998C970.518 478.37 976.463 478.805 980.214 476.554C984.077 474.235 983.744 469.352 981.048 466.165C979.313 464.113 977.907 464.17 975.389 463.835C973.675 463.607 970.551 462.274 969.097 464.079" fill="#89C5CC"/>
<path fill-rule="evenodd" clip-rule="evenodd" d="M996.5 470.189C996.5 474.585 1015.48 472.693 1018.86 472.688C1021.69 472.684 1038.79 474.244 1037.56 469.72C1036.55 466.003 1019.71 467.851 1016.12 467.845C1013.02 467.841 996.5 465.712 996.5 470.189" fill="#89C5CC"/>
</g>
<g opacity="0.5">
<path fill-rule="evenodd" clip-rule="evenodd" d="M748.7 511.376C758.206 512.756 768.094 517.227 768.011 528.292C767.941 537.595 760.138 547.496 750.119 546.94C741.102 546.441 732.612 536.58 731.483 528.13C730.898 523.752 731.993 519.039 734.568 515.437C737.942 510.719 743.296 510.726 748.7 511.376M744.21 505.362C737.334 505.399 732.304 507.886 728.049 513.136C726.523 515.018 724.748 517.044 723.586 519.177C722.501 521.169 722.691 526.234 726.415 523.859C725.498 533.665 731.229 543.182 739.467 548.207C748.422 553.669 758.544 552.604 765.997 544.948C772.819 537.94 775.22 526.103 770.229 517.436C765.241 508.774 753.683 505.269 744.21 505.362" fill="#89C5CC"/>
<path fill-rule="evenodd" clip-rule="evenodd" d="M764.826 502.734C760.424 505.96 756.405 510.208 753.067 514.517C749.804 518.728 747.647 523.987 743.727 527.66C741.748 525.504 739.429 519.681 735.48 521.991C732.203 523.908 734.313 527.205 735.909 529.369C740.03 534.958 744.606 537.208 749.891 531.685C754.691 526.67 757.417 519.98 761.905 514.677C763.873 512.349 766.915 510.04 768.482 507.47C769.903 505.142 768.146 500.294 764.826 502.734" fill="#89C5CC"/>
</g>
<g opacity="0.5">
<path fill-rule="evenodd" clip-rule="evenodd" d="M931.175 152.878C931.182 153.318 931.188 153.731 931.198 154.112C931.403 162.416 931.284 171.146 930.609 179.431C930.376 182.292 928.295 185.917 925.921 181.974C924.878 180.24 925.024 176.68 925.131 174.061C925.16 173.358 925.186 172.724 925.186 172.21C925.184 169.288 925.337 166.336 925.491 163.375C925.792 157.588 926.095 151.77 925.238 146.086C925.221 145.971 925.204 145.861 925.189 145.754C924.816 143.255 924.791 143.082 922.042 143.139C920.896 143.163 919.751 143.194 918.605 143.225C917.478 143.255 916.351 143.286 915.224 143.309C914.104 143.333 912.985 143.354 911.866 143.376C908.356 143.443 904.846 143.511 901.338 143.639C900.752 143.661 899.659 143.798 898.281 143.971C895.524 144.316 891.624 144.806 888.342 144.803C888.343 144.817 888.344 144.831 888.345 144.845C888.347 144.871 888.349 144.896 888.349 144.922C888.386 146.734 887.919 148.756 887.451 150.788C887.058 152.49 886.664 154.199 886.563 155.795C886.322 159.594 886.319 163.433 886.317 167.273C886.313 171.948 886.31 176.623 885.877 181.225C885.856 181.45 885.843 181.687 885.83 181.927C885.829 181.959 885.827 181.991 885.825 182.023C885.974 182 886.118 181.984 886.257 181.975C888.623 181.825 891.008 181.812 893.39 181.798C894.704 181.791 896.016 181.784 897.324 181.753C899.671 181.699 902.048 181.702 904.434 181.704C909.701 181.71 915.015 181.716 920.167 181.109C921.689 180.912 922.221 182.863 921.538 183.875C920.927 184.781 919.244 184.928 918.012 185.035C917.699 185.063 917.415 185.087 917.185 185.121C913.862 185.613 910.495 185.785 907.142 185.934C903.621 186.09 900.096 186.206 896.573 186.304C895.734 186.328 894.615 186.441 893.374 186.566C890.098 186.897 885.972 187.314 883.925 186.388C881.724 185.392 881.776 184.287 882.674 183.431C882.28 182.564 882.218 181.299 882.169 180.309C882.151 179.931 882.134 179.593 882.102 179.333C881.614 175.392 881.319 171.501 881.312 167.526C881.298 159.74 881.314 151.653 883.468 144.116C882.605 143.738 882.085 143.181 882.087 142.379C882.097 138.335 894.683 138.541 900.665 138.639C901.735 138.656 902.593 138.67 903.131 138.656C907.489 138.542 911.848 138.527 916.207 138.551C917.128 138.556 918.153 138.495 919.215 138.433C921.474 138.3 923.901 138.158 925.852 138.611C930.978 139.801 931.101 147.965 931.175 152.878Z" fill="#89C5CC"/>
<path fill-rule="evenodd" clip-rule="evenodd" d="M963.235 139.497C967.994 139.245 972.756 139.188 977.521 139.17C982.566 139.145 987.618 139.235 992.661 139.39L992.778 139.394C995.012 139.461 1007.43 139.834 1001.73 142.929C1001.39 143.11 1001.02 143.26 1000.61 143.386C1000.85 144.819 1000.88 146.298 1000.84 147.011C1000.69 149.714 1000.6 152.421 1000.5 155.127C1000.43 156.961 1000.37 158.795 1000.29 160.628C1000.06 165.692 999.849 170.757 999.675 175.824C999.653 176.446 999.686 177.259 999.723 178.166C999.844 181.163 1000.01 185.18 998.379 186.665C996.95 187.968 995.974 187.707 995.316 186.821C991.228 188.009 982.832 187.623 978.611 187.429C977.593 187.382 976.819 187.346 976.405 187.346C975.665 187.347 974.289 187.439 972.553 187.556C965.324 188.041 951.829 188.948 951.802 185.384C951.799 185.041 951.91 184.734 952.12 184.458C951.547 183.874 951.032 183.016 950.701 181.945C949.513 178.101 949.401 173.954 949.313 169.968C949.188 164.34 949.187 158.705 949.186 153.072C949.185 150.178 949.184 147.285 949.167 144.394C948.394 143.356 948.853 142.169 949.817 141.341C951.87 139.579 956.966 139.558 960.652 139.542C961.644 139.538 962.534 139.534 963.235 139.497ZM955.491 182.895C960.078 181.916 967.807 182.231 971.947 182.4C973.032 182.444 973.87 182.478 974.342 182.476C978.571 182.46 982.801 182.519 987.027 182.688C987.465 182.705 988.113 182.689 988.877 182.669C990.412 182.631 992.412 182.58 994.111 182.769C994.088 182.538 994.073 182.328 994.064 182.146C993.873 178.384 994.011 174.59 994.147 170.817V170.817C994.176 170.015 994.205 169.214 994.231 168.415C994.322 165.594 994.442 162.774 994.563 159.955L994.563 159.955L994.563 159.953C994.639 158.178 994.714 156.403 994.783 154.628C994.813 153.849 994.768 152.79 994.718 151.6V151.6C994.616 149.178 994.49 146.208 994.924 143.926C993.359 143.897 991.756 143.786 990.285 143.684C988.869 143.586 987.575 143.497 986.558 143.496C985.268 143.496 983.979 143.492 982.689 143.488H982.689H982.689H982.689C979.115 143.477 975.543 143.466 971.969 143.537C971.631 143.544 971.292 143.55 970.952 143.557L970.952 143.557L970.952 143.557C966.032 143.652 961.07 143.748 956.191 144.396C955.905 144.434 955.562 144.507 955.181 144.596C955.716 146.832 955.454 149.983 955.225 152.742C955.113 154.082 955.009 155.33 955.008 156.336C955.001 162.592 955.166 168.823 955.331 175.048L955.331 175.049L955.331 175.049C955.394 177.404 955.456 179.757 955.509 182.111C955.516 182.392 955.509 182.653 955.491 182.895Z" fill="#89C5CC"/>
<path fill-rule="evenodd" clip-rule="evenodd" d="M903.284 186.123C900.157 187.95 901.843 195.259 902.927 197.786C904.708 201.943 908.322 205.195 912.222 207.352C920.104 211.712 931.466 210.554 937.427 218.114C937.489 218.192 939.549 220.232 940.018 217.59C940.403 215.422 936.557 212.111 935.066 211.025C930.827 207.934 925.391 206.938 920.488 205.394C915.259 203.748 909.521 200.713 907.328 195.322C906.552 193.413 908.032 183.336 903.284 186.123" fill="#C1DEE2"/>
<path fill-rule="evenodd" clip-rule="evenodd" d="M974.78 189.637C971.914 190.427 973.809 194.371 973.804 196.345C973.799 198.809 973.011 201.387 971.493 203.353C967.643 208.338 960.104 209.085 954.452 210.515C950.348 211.553 940.529 213.78 940.145 219.331C939.716 225.529 948.385 217.986 949.117 217.677C957.219 214.705 967.701 214.131 973.955 207.589C976.537 204.888 978.062 201.284 978.305 197.564C978.441 195.469 978.465 188.63 974.78 189.637" fill="#C1DEE2"/>
<path fill-rule="evenodd" clip-rule="evenodd" d="M915.561 244.616C915.494 233.148 926.469 226.211 936.394 223.601C948.322 220.458 959.434 228.817 960.84 240.84C962.324 253.529 952.761 263.744 940.149 264.304C929.055 264.796 915.632 256.853 915.561 244.616ZM942.207 229.115C942.852 229.992 943.435 231.392 942.135 232.154C940.885 232.883 940.26 232.007 939.632 231.125C939.234 230.568 938.835 230.009 938.276 229.851C936.826 229.443 934.496 230.968 933.288 231.857C932.798 232.218 932.1 232.995 931.284 233.904C928.688 236.795 924.898 241.017 922.802 237.384C914.446 251.813 935.278 262.612 947.124 257.151C960.134 251.154 957.602 229.229 942.207 229.115Z" fill="#89C5CC"/>
<path fill-rule="evenodd" clip-rule="evenodd" d="M931.289 240.777C931.289 243.409 935.446 243.409 935.446 240.777C935.446 238.174 931.289 238.063 931.289 240.777" fill="#89C5CC"/>
<path fill-rule="evenodd" clip-rule="evenodd" d="M938.603 240.283C938.603 243.507 943.697 243.507 943.697 240.283C943.697 237.095 938.603 236.959 938.603 240.283" fill="#89C5CC"/>
<path fill-rule="evenodd" clip-rule="evenodd" d="M933.369 247.796C929.203 250.247 941.117 255.115 941.587 250.14C941.79 247.993 939.711 248.572 938.325 248.414C936.999 248.263 934.627 247.064 933.369 247.796" fill="#89C5CC"/>
<path fill-rule="evenodd" clip-rule="evenodd" d="M931.562 265.181C931.743 271.44 931.656 277.695 932.843 283.867C933.069 285.039 933.225 289.291 934.152 290.162C936.431 292.304 936.468 288.198 936.557 286.625C936.873 280.99 936.281 275.179 936.151 269.532C936.123 268.316 936.445 265.799 935.871 264.622C934.961 262.754 931.473 262.2 931.562 265.181" fill="#C1DEE2"/>
<path fill-rule="evenodd" clip-rule="evenodd" d="M927.106 260.106C917.973 270.357 905.396 269.602 892.726 270.5C886.032 270.974 879.263 271.948 873.876 276.278C871.37 278.293 869.21 280.816 867.758 283.691C867.124 284.948 864.114 292.201 868.634 290.481C870.237 289.87 871.816 285.074 872.852 283.655C874.827 280.953 877.354 278.722 880.385 277.272C886.232 274.475 893.214 274.523 899.554 274.168C906.181 273.797 913.294 273.45 919.386 270.568C922.252 269.213 924.94 267.522 927.247 265.343C928.071 264.564 929.838 263.241 929.969 262.05C930.12 260.689 928.812 258.197 927.106 260.106" fill="#C1DEE2"/>
<path fill-rule="evenodd" clip-rule="evenodd" d="M881 291.569C872.421 291.856 863.852 292.203 855.285 292.746C853.53 292.857 847.676 292.502 849.167 296.1C850.362 298.983 857.501 297.076 859.862 296.936C868.789 296.406 877.753 296.222 886.662 295.419C888.663 295.239 897.709 295.31 893.973 291.764C892.196 290.076 883.455 291.486 881 291.569" fill="#89C5CC"/>
<path fill-rule="evenodd" clip-rule="evenodd" d="M843.72 295.707C841.015 299.259 842.258 307.891 842.462 312.161C842.66 316.298 841.856 323.863 847.257 324.505C845.542 324.28 848.559 324.609 849.05 324.635C850.146 324.694 851.248 324.713 852.346 324.725C854.883 324.753 857.421 324.719 859.957 324.668C865.702 324.553 871.462 324.386 877.2 324.069C879.612 323.935 892.696 324.047 893.214 321.541C893.876 318.339 881.331 320.151 879.085 320.253C873.616 320.504 868.138 320.557 862.664 320.628C859.951 320.664 857.235 320.691 854.522 320.638C853.401 320.616 848.965 321.076 848.284 320.328C847.703 319.692 848.156 313.842 848.144 312.947C848.104 310.03 848.107 307.106 848.211 304.191C848.281 302.228 849.342 298.493 848.478 296.649C847.636 294.856 845.185 294.244 843.72 295.707" fill="#89C5CC"/>
<path fill-rule="evenodd" clip-rule="evenodd" d="M887.895 295.873C888.052 302.371 888.1 308.999 889.635 315.354C890.146 317.468 890.861 321.829 892.986 322.924C895.215 324.073 897.141 322.433 897.286 320.223C897.47 317.446 895.983 313.799 895.678 310.949C895.321 307.624 895.114 304.296 894.992 300.954C894.9 298.441 895.664 294.673 893.268 293.053C891.116 291.597 887.825 293.063 887.895 295.873" fill="#89C5CC"/>
<path fill-rule="evenodd" clip-rule="evenodd" d="M904.968 294.287C902.3 296.945 903.492 305.36 903.826 308.775C904.07 311.276 906.808 323.581 910.91 317.164C912.725 314.326 910.419 306.821 910.436 303.511C910.446 301.403 911.192 298.738 910.832 296.713C910.356 294.037 907.388 291.87 904.968 294.287" fill="#89C5CC"/>
<path fill-rule="evenodd" clip-rule="evenodd" d="M923.443 292.093C931.457 291.266 939.481 290.646 947.539 290.569C947.926 290.566 948.333 290.561 948.756 290.556C954.279 290.486 962.579 290.38 966.296 294.528C968.321 296.787 969.238 300.28 970.038 303.325C970.187 303.892 970.332 304.445 970.479 304.971C970.605 305.42 970.769 305.932 970.946 306.486C971.781 309.1 972.91 312.637 971.765 314.826C971.137 316.027 970.126 317.051 968.591 316.626C968.233 316.526 967.952 316.399 967.731 316.249C968.319 316.885 968.58 317.792 968.198 318.678C967.46 320.392 965.128 320.429 963.291 320.457C962.846 320.464 962.429 320.471 962.072 320.501C955.953 321.011 949.806 321.351 943.666 321.405C940.742 321.43 937.818 321.406 934.894 321.383C931.885 321.358 928.875 321.333 925.866 321.363C923.681 321.384 921.457 321.592 919.231 321.8C916.422 322.062 913.611 322.324 910.878 322.212C908.834 322.128 906.651 321.459 907.169 318.817C907.592 316.66 909.622 316.472 911.441 316.303C911.599 316.289 911.756 316.274 911.91 316.258C917.702 315.669 923.498 315.46 929.32 315.481C941.551 315.523 953.773 315.46 966.003 315.396C966.506 315.438 966.979 315.63 967.369 315.922C966.929 315.388 966.937 314.676 966.947 313.919C966.951 313.576 966.955 313.223 966.918 312.874C966.843 312.171 966.774 311.471 966.706 310.772C966.48 308.463 966.256 306.171 965.815 303.849C965.749 303.498 965.685 303.112 965.617 302.704C965.216 300.293 964.686 297.098 962.769 295.796C960.841 294.487 957.061 294.55 954.115 294.599C953.32 294.612 952.585 294.624 951.964 294.608C944.103 294.405 936.197 294.964 928.371 295.675C927.77 295.73 927.168 295.782 926.565 295.835C923.588 296.094 920.595 296.355 917.661 296.887C917.124 296.985 916.304 297.271 915.363 297.6C912.86 298.473 909.503 299.644 908.362 298.354C904.584 294.081 921.188 292.326 923.443 292.093Z" fill="#89C5CC"/>
<path fill-rule="evenodd" clip-rule="evenodd" d="M1008.71 282.363C1009.06 282.811 1009.06 282.811 1008.71 282.363ZM954.473 255.887C949.605 258.748 958.614 267.143 960.909 268.441C966.073 271.363 973.17 271.804 978.936 272.625C986.234 273.666 994.176 274.049 1001.19 276.44C1004.18 277.46 1006.08 279.049 1008.03 281.493C1009.03 282.732 1011.41 288.069 1013.59 286.805C1017.96 284.261 1006.17 273.583 1003.57 272.435C997.662 269.825 990.678 269.094 984.361 268.081C978.487 267.138 972.486 266.437 966.757 264.775C963.607 263.862 961.368 262.388 959.552 259.567C958.42 257.809 957.492 254.121 954.473 255.887" fill="#C1DEE2"/>
<path fill-rule="evenodd" clip-rule="evenodd" d="M1029.09 288.681C1023.48 288.806 1017.88 289.238 1012.28 289.669C1009.14 289.911 1006 290.153 1002.85 290.341C1001.87 290.4 1000.89 290.453 999.902 290.506L999.902 290.506L999.902 290.506C997.133 290.655 994.361 290.804 991.606 291.083C991.188 291.125 990.703 291.165 990.174 291.208C987.834 291.4 984.644 291.662 982.605 292.516C980.736 291.102 977.851 292.304 977.806 294.824C977.729 299.414 977.771 303.923 978.331 308.485C978.461 309.544 979.13 314.905 980.586 317.696C980.068 320.332 982.315 321.07 984.406 321.272C992.506 322.054 1001 321.447 1009.38 320.849C1013.64 320.544 1017.87 320.242 1022.01 320.125C1023.38 320.086 1024.77 320.071 1026.17 320.055C1030.75 320.004 1035.41 319.952 1039.83 319.087C1040.01 319.052 1040.2 319.018 1040.4 318.982C1042.15 318.669 1044.57 318.236 1044.75 316.31C1044.86 315.154 1044.21 314.096 1043.12 313.947C1043.19 312.984 1043.07 311.933 1042.98 311.161L1042.98 311.161C1042.96 310.981 1042.94 310.816 1042.93 310.671C1042.66 307.993 1041.99 305.332 1041.34 302.705L1041.34 302.705L1041.34 302.705C1041.19 302.114 1041.04 301.525 1040.9 300.939C1040.74 300.289 1040.59 299.515 1040.44 298.682C1039.88 295.739 1039.18 292.042 1037.32 290.325C1035.37 288.525 1032.19 288.604 1029.65 288.668C1029.46 288.673 1029.27 288.678 1029.09 288.681ZM1038.97 314.235C1038.3 312.493 1038.11 310.138 1037.92 307.899V307.899C1037.8 306.494 1037.69 305.134 1037.47 304.001C1037.3 303.151 1037.17 302.255 1037.03 301.344L1037.03 301.344C1036.69 299.131 1036.34 296.832 1035.51 294.893C1034.39 292.296 1033.4 292.395 1031.06 292.63C1030.63 292.674 1030.14 292.722 1029.61 292.759C1027.22 292.921 1024.83 293.127 1022.45 293.334L1022.45 293.334C1021.31 293.433 1020.16 293.532 1019.02 293.626C1014.12 294.028 1009.22 294.338 1004.32 294.647L1004.32 294.647C1001.46 294.828 998.599 295.008 995.737 295.208C993.491 295.364 991.298 295.791 989.115 296.216C987.386 296.553 985.662 296.889 983.922 297.088C983.897 297.683 983.847 298.28 983.799 298.849C983.734 299.624 983.674 300.346 983.687 300.937C983.744 303.559 983.975 306.164 984.207 308.774C984.243 309.175 984.278 309.576 984.313 309.978C984.355 310.459 984.459 311.077 984.574 311.763C984.751 312.824 984.956 314.046 985.001 315.171C985.213 315.17 985.424 315.171 985.631 315.171C985.899 315.172 986.162 315.173 986.415 315.169C992.583 315.061 998.747 314.874 1004.91 314.637C1005.7 314.607 1006.49 314.576 1007.27 314.546C1012.77 314.332 1018.27 314.117 1023.78 314.054C1025.96 314.029 1028.18 314.098 1030.4 314.167C1033.26 314.255 1036.13 314.344 1038.97 314.235Z" fill="#89C5CC"/>
</g>
<path fill-rule="evenodd" clip-rule="evenodd" d="M1060.17 463.919L1004.83 652.167L964.448 790.915H934.997L977.905 463.919H1060.17Z" fill="#191847"/>
<path fill-rule="evenodd" clip-rule="evenodd" d="M1074.97 463.919C1076.25 560.944 1080.61 613.864 1081.96 622.679C1083.3 631.494 1103.62 687.573 1142.92 790.915H1112.42C1062.38 691.776 1034.45 635.697 1028.63 622.679C1022.8 609.661 1004.82 556.741 977.739 463.919H1074.97Z" fill="#2F3676"/>
<path fill-rule="evenodd" clip-rule="evenodd" d="M1145.65 817.548L1144.13 786.476L1112.07 786.476C1089.27 802.012 1052.54 811.63 1052.54 811.63V817.548H1110.54L1130.39 814.589V817.548H1145.65Z" fill="#191847"/>
<path fill-rule="evenodd" clip-rule="evenodd" d="M968.58 817.548L967.054 786.476L934.997 786.476C912.197 802.012 875.465 811.63 875.465 811.63V817.548H933.471L953.315 814.589V817.548H968.58Z" fill="#191847"/>
<path fill-rule="evenodd" clip-rule="evenodd" d="M849.238 297.42L784.334 304.33C770.042 300.618 757.314 298.842 746.153 299.004C743.163 299.639 738.709 301.824 747.2 305.789C755.69 309.755 764.439 314.297 763.963 317.625C763.487 320.953 756.656 321.41 756.767 326.324C756.842 329.6 767.588 327.536 789.006 320.131L844.96 327.326L849.238 297.42Z" fill="#B28B67"/>
<path fill-rule="evenodd" clip-rule="evenodd" d="M455.889 410.119C466.566 416.387 477.057 419.416 481.982 418.18C494.33 415.08 495.466 371.082 485.911 353.736C476.357 336.391 427.239 328.831 424.763 363.197C423.904 375.125 429.046 385.769 436.643 394.454L423.02 456.298H462.591L455.889 410.119Z" fill="#B28B67"/>
<path fill-rule="evenodd" clip-rule="evenodd" d="M470.28 334.845C464.873 333.239 457.023 332.694 453.721 333.063C455.6 328.68 456.345 323.796 455.737 319.041C455.147 314.421 453.027 310.487 451.067 306.365C450.163 304.465 449.139 302.575 447.612 301.122C446.057 299.641 444.088 298.664 442.024 298.197C439.911 297.72 437.702 297.76 435.586 298.193C434.65 298.385 433.81 298.801 432.892 299.033C431.952 299.271 431.496 298.697 430.814 298.122C429.169 296.734 426.759 296.049 424.678 295.804C422.344 295.529 419.922 295.871 417.696 296.619C415.529 297.346 413.448 298.528 411.881 300.249C411.184 301.015 410.551 301.887 410.139 302.85C409.971 303.245 409.943 303.479 409.538 303.624C409.163 303.757 408.726 303.761 408.339 303.889C404.603 305.121 401.409 307.933 399.67 311.543C398.655 313.648 398.175 317.356 398.306 321.512C398.438 325.668 402.291 336.512 405.894 340.467C409.111 343.998 413.839 346.327 418.401 347.347C415.373 350.719 413.357 354.932 411.866 359.217C410.247 363.871 409.245 368.707 408.874 373.635C408.523 378.317 408.49 383.268 409.617 387.85C410.671 392.135 412.926 395.65 416.689 397.88C418.413 398.901 420.268 399.668 422.134 400.37C423.972 401.061 425.816 401.733 427.742 402.121C431.387 402.855 435.587 402.729 438.395 399.903C439.406 398.884 440.519 397.604 441.258 396.36C441.523 395.912 441.683 395.62 441.361 395.182C440.974 394.658 440.349 394.257 439.853 393.847C437.023 391.51 435.271 388.391 434.829 384.683C434.381 380.922 435.419 376.067 439.173 374.425C443.808 372.399 448.913 374.725 453.032 376.893C454.783 370.874 458.378 365.455 464.014 362.695C470.25 359.64 477.405 359.283 483.813 356.663C485.482 355.98 487.183 355.205 488.412 353.813C488.926 353.232 489.529 352.477 489.734 351.708C490.004 350.698 489.335 349.851 488.818 349.063C486.078 344.887 475.687 336.451 470.28 334.845Z" fill="#191847"/>
<path fill-rule="evenodd" clip-rule="evenodd" d="M419.722 870.617C489.839 870.617 546.679 817.772 546.679 752.584C546.679 687.397 489.839 634.552 419.722 634.552C349.605 634.552 292.765 687.397 292.765 752.584C292.765 817.772 349.605 870.617 419.722 870.617Z" fill="#C5CFD6"/>
<path fill-rule="evenodd" clip-rule="evenodd" d="M617.101 746.29C623.233 767.211 638.511 806.866 659.637 852.406L679.712 846.701C662.149 741.91 647.533 672.532 639.161 651.416C633.629 637.465 591.779 639.1 596.594 667.172C598.613 678.944 606.601 710.466 617.101 746.29ZM534.589 672.067C501.852 678.673 433.974 702.026 414.591 709.488C402.41 714.178 410.263 730.083 420.655 728.691C422.415 728.456 428.641 727.777 437.931 726.765C467.771 723.514 529.221 716.818 575.828 710.285C600.368 706.845 587.167 662.073 561.687 666.811C553.114 668.405 543.996 670.169 534.589 672.067Z" fill="#B28B67"/>
<path fill-rule="evenodd" clip-rule="evenodd" d="M640.444 639.591C637.097 628.953 484.952 591.193 484.952 591.193H472.483V602.509L577.326 654.491C577.186 656.168 577.272 657.941 577.61 659.811C576.853 698.347 593.786 727.135 610.552 755.638C621.516 774.278 632.407 792.795 638.233 813.835L676.752 808.238C675.63 805.443 673.855 792.841 671.429 775.611C665.313 732.166 655.054 659.296 640.661 640.017C640.61 639.95 640.559 639.883 640.507 639.816C640.489 639.741 640.468 639.666 640.444 639.591Z" fill="#0E5294"/>
<path fill-rule="evenodd" clip-rule="evenodd" d="M481.194 685.363C471.601 683.492 462.768 681.823 455.209 680.532C406.382 672.191 392.144 646.734 400.562 591.193H490.524C505.22 595.304 581.591 626.498 621.216 643.089C647.441 654.07 639.174 693.656 624.323 703.957C624.242 704.589 623.975 705.019 623.499 705.211C567.191 727.941 519.174 726.245 488.34 725.156C475.426 724.7 465.525 724.35 459.293 725.946L449.527 695.942L481.194 685.363Z" fill="#1E90FF"/>
<path fill-rule="evenodd" clip-rule="evenodd" d="M424.838 706.623C424.813 705.452 423.802 704.51 422.618 704.618C419.254 704.923 412.939 705.654 410.071 707.016C406.063 708.92 399.024 713.874 399.024 713.874C401.292 718.403 439.79 795.283 439.79 795.283C439.79 795.283 452.15 793.339 449.586 786.094C447.021 778.85 445.448 773.999 445.448 773.999L443.798 727.315C443.778 726.751 443.286 726.312 442.715 726.347L434.793 726.832C434.793 726.832 428.591 721.943 426.61 717.986C425.223 715.217 424.904 709.691 424.838 706.623Z" fill="#E4E4E4"/>
<path fill-rule="evenodd" clip-rule="evenodd" d="M653.275 841.588C652.222 841.113 650.972 841.584 650.555 842.661C649.365 845.731 647.256 851.61 647.256 854.728C647.256 859.072 648.742 867.405 648.742 867.405C653.915 867.405 741.737 867.405 741.737 867.405C741.737 867.405 745.362 855.733 737.552 854.803C729.742 853.872 724.576 853.122 724.576 853.122L680.729 834.084C680.219 833.862 679.627 834.099 679.41 834.611L676.379 841.773C676.379 841.773 669.149 845.059 664.629 845.059C661.432 845.059 656.115 842.87 653.275 841.588Z" fill="#E4E4E4"/>
<path fill-rule="evenodd" clip-rule="evenodd" d="M611.153 604.697L558.559 567.081L546.933 595.074L599.014 616.108C613.744 632.961 621.98 639.986 623.724 637.184C625.194 634.822 624.045 632.61 622.986 630.573C622.162 628.987 621.392 627.506 621.959 626.142C623.252 623.027 633.147 623.355 642.523 624.057C651.898 624.76 649.166 620.696 646.905 618.69C637.335 613.11 625.417 608.446 611.153 604.697ZM335.34 670.977C340.172 661.43 356.626 568.38 356.626 568.38L391.081 568.512C391.081 568.512 359.169 668.848 356.626 674.988C353.322 682.963 358.934 694.55 362.74 702.407C363.329 703.623 363.874 704.749 364.337 705.759C359.056 708.06 356.519 705.279 353.845 702.346C350.825 699.033 347.629 695.528 340.105 698.938C337.198 700.255 334.447 701.812 331.76 703.333C322.477 708.589 313.95 713.417 302.349 706.445C300.51 705.34 298.495 701.178 303.364 697.926C315.496 689.824 332.978 675.645 335.34 670.977Z" fill="#B28B67"/>
<path fill-rule="evenodd" clip-rule="evenodd" d="M454.543 427.563L468.8 425.181C521.699 469.689 543.427 555.194 608.267 600.489L592.661 619.331C480.174 605.766 452.293 501.47 454.543 427.563Z" fill="#E87613"/>
<path fill-rule="evenodd" clip-rule="evenodd" d="M392.392 602.071C392.392 602.071 478.141 602.071 518.543 602.071C524.308 602.071 523.222 593.964 522.388 589.873C512.771 542.659 475.229 491.765 475.229 424.558L438.841 419C408.743 466.146 398.335 524.193 392.392 602.071Z" fill="#DDE3E9"/>
<path fill-rule="evenodd" clip-rule="evenodd" d="M378.207 635.795C372.537 649.057 366.978 660.63 361.739 669.519H334.684C331.773 577.852 367.405 507.318 397.225 464.788C390.604 464.328 384.628 461.629 380.85 454.99C367.55 431.616 372.353 418.747 386.567 414.517C394.382 412.191 401.733 413.778 410.532 415.679C417.733 417.234 425.903 418.999 436.091 419C436.094 419 436.098 419 436.101 419C437.088 419 437.987 419.064 438.803 419.188L450.877 419.859C450.877 419.859 499.902 581.685 477.918 635.795H378.207Z" fill="#FF9B21"/>
<path fill-rule="evenodd" clip-rule="evenodd" d="M378.207 635.795C385.646 618.394 393.274 598.083 400.615 577.107C403.347 600.207 407.898 623.408 415.475 635.795H378.207Z" fill="black" fill-opacity="0.1"/>
<path fill-rule="evenodd" clip-rule="evenodd" d="M1012.22 271.271C1001.56 277.614 991.078 280.679 986.158 279.428C973.823 276.291 972.689 231.769 982.233 214.218C991.778 196.666 1040.84 189.016 1043.32 223.791C1044.18 235.86 1039.04 246.631 1031.45 255.42L1045.06 318H1005.53L1012.22 271.271Z" fill="#B28B67"/>
<path fill-rule="evenodd" clip-rule="evenodd" d="M1010.25 227.632C1006.83 222.609 1003.55 218.778 999.276 216.553C981.898 216.824 979.863 213.75 979.863 203.39C982.67 201.409 992.574 198.072 1003.66 197.133C1009.32 195.536 1016.03 195.836 1022.48 198.501C1030.45 200.732 1037.2 205.537 1040.18 214.533C1050.97 232.897 1042.78 252.013 1031.75 258.543C1028.81 255.111 1026.25 251.784 1023.96 248.6C1025.8 246.829 1026.94 244.359 1026.94 241.625C1026.94 236.24 1022.52 231.875 1017.06 231.875C1016.66 231.875 1016.26 231.899 1015.87 231.944C1015.63 238.677 1014.62 261.454 1011.96 269.366C1008.83 278.694 990.568 280.984 984.198 280.984C978.696 280.984 978.884 275.844 979.018 272.16C979.037 271.629 979.056 271.129 979.056 270.679C979.056 269.738 980.296 269.74 981.698 269.743C983.518 269.746 985.61 269.75 985.61 267.69C985.61 265.444 982.464 263.721 979.649 262.18C977.893 261.218 976.265 260.327 975.611 259.423C973.546 256.571 972.85 252.725 975.965 252.725C977.668 252.725 980.004 253.694 982.815 254.859C987.058 256.618 992.382 258.825 998.24 258.825C1007.92 258.825 1010.22 228.017 1010.25 227.632Z" fill="#38210B"/>
<rect x="974.371" y="225.04" width="4.87264" height="17.5553" rx="2" transform="rotate(5.84415 974.371 225.04)" fill="#5C3919"/>
<rect x="976.21" y="233.231" width="5.27648" height="36.5342" rx="2" transform="rotate(-82.5 976.21 233.231)" fill="#5C3919"/>
<path fill-rule="evenodd" clip-rule="evenodd" d="M1130.69 420.518C1130.69 420.518 1157.87 511.061 1163.79 520.005C1166.68 524.377 1177.49 538.297 1190.5 545C1195.72 547.691 1194.71 556.428 1193.01 557.728C1179.17 568.301 1175.86 552.678 1162.3 548.283C1147.43 543.469 1159.26 561.351 1147.5 557.728C1150.06 549.866 1147.94 535.054 1143.07 526.334C1139.83 520.521 1096.42 424.45 1096.42 424.45L1130.69 420.518Z" fill="#B28B67"/>
<path fill-rule="evenodd" clip-rule="evenodd" d="M1037.25 301.975L1030.38 289.559C966.941 307.438 896.626 307.896 819.435 290.935L810.5 349C904.419 353.231 988 369 1037.25 301.975Z" fill="#191847"/>
<path fill-rule="evenodd" clip-rule="evenodd" d="M1100.41 457.906L974.077 471.915C974.077 471.915 995 365.5 997.352 290.85L1034.81 281.108C1070.24 324.584 1085.44 381.261 1100.41 457.906Z" fill="#78A3C7"/>
<path fill-rule="evenodd" clip-rule="evenodd" d="M1163.98 504.139C1132.44 354.238 1035.65 281.016 1035.65 281.016L1035.62 281.045C1035.62 281.037 1035.61 281.029 1035.61 281.021L1033.12 281.296C1028.67 281.941 1019.58 283.343 1019.58 283.343L1013.36 309.93C1017.38 356.848 1018.36 500.275 1018.36 500.275L1101.05 491.106C1101.67 497.618 1102.13 504.241 1102.41 510.967L1163.98 504.139Z" fill="#2F3676"/>
<path fill-rule="evenodd" clip-rule="evenodd" d="M1101.11 491.735C1098.46 463.37 1092.77 437.091 1085.64 413.528C1086.73 442.305 1086.03 477.153 1078.07 494.29L1101.11 491.735Z" fill="black" fill-opacity="0.1"/>
<path fill-rule="evenodd" clip-rule="evenodd" d="M1077.03 444.351L1034.04 430.436L1036.2 448.879L1077.03 444.351Z" fill="white" fill-opacity="0.2"/>
</g>
<defs>
<clipPath id="clip0">
<rect width="1456" height="883" fill="white"/>
</clipPath>
</defs>
</svg>
