<svg width="1465" height="840" viewBox="0 0 1465 840" fill="none" xmlns="http://www.w3.org/2000/svg">
<g clip-path="url(#clip0)">
<rect width="1465" height="840" fill="white"/>
<path fill-rule="evenodd" clip-rule="evenodd" d="M1049.23 235.334C1048.69 234.946 1047.43 234.809 1046.84 234.692C1044.39 234.21 1041.87 234 1039.37 234C1031.68 234.012 1023.86 234.767 1016.3 236.074C1011.49 236.903 1005.69 239.696 1000.91 238.179C992.585 235.537 984.172 235.667 976.274 239.439C969.053 242.888 963.572 249.439 960.373 256.517C959.89 257.586 957.932 261.519 957.378 264.17C957.141 264.712 956.913 265.257 956.708 265.811C956.126 267.384 955.603 268.984 955.118 270.588C954.91 271.272 954.389 272.782 955.008 273.074C954.019 274.901 953.141 276.783 952.411 278.726C950.286 284.378 947.962 290.578 947.215 296.568C946.939 298.786 946.928 301.017 947.185 303.239C947.312 304.338 947.26 306.546 948.004 307.382C949.585 309.154 950.396 306.673 950.218 305.491C948.858 296.485 951.485 288.027 954.598 279.561C956.612 274.087 959.92 269.078 963.626 264.543C966.625 260.871 969.842 257.98 973.953 255.546C978.981 252.569 984.356 250.163 989.681 247.749C993.184 246.161 996.691 244.615 1000.29 243.247C1001.09 242.942 1002.35 242.161 1003.24 242.158C1005.12 242.152 1007.78 243.537 1009.59 244.052C1015.55 245.748 1021.59 247.919 1027.76 248.785C1031.71 249.341 1035.42 248.715 1039.11 247.398C1039.49 247.264 1040.12 246.918 1040.9 246.424C1043.65 245.368 1046.24 244.039 1048.5 242.121C1049.81 241.017 1050.99 239.589 1052.07 238.282C1052.39 237.892 1052.53 237.444 1052.54 237.018C1052.78 236.891 1052.94 236.741 1052.98 236.567C1053.25 235.281 1050.8 235.258 1049.23 235.334Z" fill="#89C5CC"/>
<path fill-rule="evenodd" clip-rule="evenodd" d="M424.273 342.541C422.764 343.763 421.284 345.012 419.84 346.31C418.739 347.301 416.791 348.485 416.396 349.985C415.985 351.544 417.282 353.003 418.306 353.945C423.723 358.929 429.823 362.298 437.329 362.859C448.887 363.722 458.946 360.77 468.974 354.963C476.018 350.883 480.684 344.849 481.703 336.701C490.092 340.187 498.205 344.993 505.1 350.891C508.502 353.801 511.432 357.025 514.142 360.599C515.878 362.889 517.557 365.215 519.115 367.631C519.792 368.68 520.481 370.542 521.599 371.146C522.912 371.856 524.499 370.743 524.434 369.284C524.379 368.069 523.068 366.66 522.454 365.667C521.436 364.018 520.402 362.379 519.313 360.776C517.551 358.179 515.73 355.62 513.744 353.19C509.28 347.73 503.601 343.221 497.714 339.375C486.42 331.997 474.025 327.349 460.283 326.955C451.833 326.713 444.725 329.6 437.499 333.911C433 336.595 428.356 339.235 424.273 342.541Z" fill="#DDE3E9"/>
<path fill-rule="evenodd" clip-rule="evenodd" d="M533.883 306.856C525.077 297.787 516.241 288.832 506.403 280.847C500.605 276.141 494.495 271.863 488.511 267.401C489.201 268.006 489.878 268.628 490.539 269.266C488.671 267.998 486.226 267.281 484.246 266.107C482.037 264.798 479.925 263.301 477.854 261.791C473.811 258.845 469.829 255.843 465.673 253.051C461.043 249.94 456.245 247.066 451.536 244.072C447.539 241.532 443.494 238.751 439.218 236.674C436.888 235.542 434.553 234.201 432.213 233.02C431.43 232.625 423.484 227.608 423.504 227.593C423.943 227.262 427.942 229.14 428.56 229.393C430.366 230.131 432.094 231.013 433.83 231.893C432.877 230.013 432.123 228.038 431.712 225.958C431.585 225.316 430.569 220.644 431.089 220.252C431.348 220.056 433.883 228.416 434.013 229.219C434.119 229.872 434.103 230.812 434.317 231.431C434.662 232.429 434.645 232.127 435.405 232.69C436.798 233.721 438.647 234.365 440.154 235.227C440.968 235.68 443.485 237.48 445.001 237.993C449.588 240.221 454.238 243.649 458.597 246.495C457.453 244.345 456.582 242.097 455.948 239.741C455.797 239.182 454.167 234.165 454.563 233.867C455.008 233.532 458.112 241.195 458.296 241.92C458.637 243.268 458.708 244.767 459.136 246.079C459.605 247.518 461.07 248.028 462.39 248.867C467.247 251.953 471.938 255.232 476.55 258.662C481.583 249.711 475.78 238.903 470.89 231.393C467.364 225.98 462.619 221.34 457.608 217.289C450.92 211.882 443.269 207.563 435.627 203.612C426.723 199.009 417.099 196.156 407.093 194.839C401.86 194.149 396.507 194.169 391.221 194.39C388.639 194.497 386.16 194.84 383.686 195.682C382.57 196.062 381.492 196.541 380.442 197.077C379.644 197.484 377.713 197.914 377.255 198.521C373.477 203.438 371.545 208.337 371.84 214.515C372.119 220.363 373.966 226.214 376.472 231.431C379.264 237.24 382.854 242.512 387.55 246.936C391.132 250.312 395.137 253.25 399.116 256.15C413.267 266.463 431.208 275.433 449.536 273.128C455.469 272.383 461.112 270.308 466.385 267.488C467.628 266.824 468.863 266.152 470.036 265.368C470.827 264.839 472.941 262.456 473.736 262.369C474.827 262.251 477.175 264.468 478.198 265.144C485.972 270.275 493.542 275.685 500.953 281.313C508.839 287.301 516.337 293.697 523.615 300.393C526.71 303.242 529.786 306.096 532.791 309.04C533.491 309.725 535.202 312.247 536.471 312.361C537.273 312.434 537.814 311.749 537.7 311.006C537.501 309.715 534.785 307.784 533.883 306.856Z" fill="#C1DEE2"/>
<path fill-rule="evenodd" clip-rule="evenodd" d="M1039.98 271.66C1036.57 270.915 1032.8 270.972 1029.33 271.033C1010.7 271.287 992.397 280.109 980.489 294.205C970.351 306.205 967.563 321.125 965.56 336.207C965.362 337.704 965.277 339.192 965.165 340.693C965.141 341.015 965.105 341.302 965.066 341.573C964.279 342.277 963.865 343.098 964.332 344C962.597 347.797 961.129 351.69 959.869 355.706C956.162 367.526 952.392 379.571 954.714 392C955.257 385.16 956.399 378.166 957.764 371.438C957.842 371.052 957.927 370.669 958.015 370.287C958.025 370.247 958.033 370.206 958.042 370.166C958.525 368.106 959.153 366.108 959.917 364.141C959.925 364.119 959.933 364.098 959.941 364.077C960.042 363.818 960.149 363.56 960.255 363.303C960.474 362.77 960.699 362.238 960.937 361.709C961.018 361.528 961.095 361.346 961.17 361.163C962.282 358.437 962.751 355.365 963.748 352.545C963.986 351.904 964.235 351.265 964.496 350.629C964.512 350.592 964.527 350.555 964.543 350.518C965.249 348.807 966.028 347.118 966.853 345.446C967.301 345.109 967.54 344.274 967.927 343.515C968.006 343.365 968.631 342.368 968.817 341.793C969.303 340.854 969.786 339.915 970.275 338.977C970.261 338.983 970.246 338.988 970.231 338.994C970.72 338.093 971.211 337.197 971.698 336.304C971.805 336.108 971.913 335.912 972.021 335.715C972.196 335.402 972.371 335.089 972.545 334.777C974.177 331.856 975.908 328.994 977.705 326.167C978.347 325.158 979.879 323.711 980.173 322.579C980.184 322.536 980.186 322.497 980.193 322.457C984.093 316.979 988.582 311.927 993.967 307.924C993.316 308.628 991.932 311.015 991.567 311.488C990.447 312.935 989.232 314.282 988.013 315.646C985.828 318.089 983.696 320.609 981.801 323.274C978.335 328.148 975.346 333.277 972.519 338.51C972.493 338.54 972.463 338.569 972.438 338.601C971.017 340.352 970.123 342.998 969.101 345.001C973.147 343.127 977.622 341.906 981.774 340.242C985.916 338.583 989.944 336.735 993.834 334.566C999.003 331.682 1004.37 328.427 1009.25 324.743C1014.85 321.271 1019.55 316.492 1023.7 311.477C1028.62 305.543 1033.12 299.558 1035.9 292.353C1037.27 288.813 1038.34 285.121 1038.98 281.386C1039.01 281.224 1039.05 281.047 1039.08 280.864C1039.74 279.574 1040.32 278.255 1040.81 276.906C1041.59 274.766 1043.42 272.412 1039.98 271.66Z" fill="#69A1AC"/>
<g opacity="0.6" clip-path="url(#clip1)">
<path fill-rule="evenodd" clip-rule="evenodd" d="M1342.93 602.088C1360.86 690.468 926.042 748.115 551.784 707.884C177.527 667.654 5.83547 510.55 184.425 426.839C363.014 343.128 1325 513.709 1342.93 602.088Z" fill="#DDE3E9"/>
</g>
<rect x="497" y="116" width="159" height="302" rx="8" fill="#F2F2F2"/>
<path fill-rule="evenodd" clip-rule="evenodd" d="M576 399C584.284 399 591 392.284 591 384C591 375.716 584.284 369 576 369C567.716 369 561 375.716 561 384C561 392.284 567.716 399 576 399Z" fill="white"/>
<path fill-rule="evenodd" clip-rule="evenodd" d="M563 136C564.105 136 565 135.105 565 134C565 132.895 564.105 132 563 132C561.895 132 561 132.895 561 134C561 135.105 561.895 136 563 136Z" fill="white"/>
<rect x="570" y="132" width="21" height="4" rx="2" fill="white"/>
<rect x="511" y="144" width="131" height="54" rx="4" fill="white"/>
<g clip-path="url(#clip2)">
<rect x="550" y="160.2" width="73" height="8.1" rx="3" fill="#DDE3E9"/>
<rect x="550" y="173.7" width="49" height="8.1" rx="3" fill="#DDE3E9"/>
</g>
<path fill-rule="evenodd" clip-rule="evenodd" d="M532 183C538.627 183 544 177.627 544 171C544 164.373 538.627 159 532 159C525.373 159 520 164.373 520 171C520 177.627 525.373 183 532 183Z" fill="#C5CFD6"/>
<rect x="511" y="206" width="131" height="42" rx="4" fill="white"/>
<g clip-path="url(#clip3)">
<rect x="550" y="218.6" width="73" height="6.3" rx="3" fill="#DDE3E9"/>
<rect x="550" y="229.1" width="49" height="6.3" rx="3" fill="#DDE3E9"/>
</g>
<path fill-rule="evenodd" clip-rule="evenodd" d="M532 239C538.627 239 544 233.627 544 227C544 220.373 538.627 215 532 215C525.373 215 520 220.373 520 227C520 233.627 525.373 239 532 239Z" fill="#C5CFD6"/>
<rect x="511" y="256" width="131" height="42" rx="4" fill="white"/>
<g clip-path="url(#clip4)">
<rect x="550" y="268.6" width="73" height="6.3" rx="3" fill="#DDE3E9"/>
<rect x="550" y="279.1" width="49" height="6.3" rx="3" fill="#DDE3E9"/>
</g>
<path fill-rule="evenodd" clip-rule="evenodd" d="M532 289C538.627 289 544 283.627 544 277C544 270.373 538.627 265 532 265C525.373 265 520 270.373 520 277C520 283.627 525.373 289 532 289Z" fill="#AFB9C5"/>
<rect x="511" y="306" width="131" height="42" rx="4" fill="white"/>
<g clip-path="url(#clip5)">
<rect x="550" y="318.6" width="73" height="6.3" rx="3" fill="#DDE3E9"/>
<rect x="550" y="329.1" width="49" height="6.3" rx="3" fill="#DDE3E9"/>
</g>
<path fill-rule="evenodd" clip-rule="evenodd" d="M532 339C538.627 339 544 333.627 544 327C544 320.373 538.627 315 532 315C525.373 315 520 320.373 520 327C520 333.627 525.373 339 532 339Z" fill="#C5CFD6"/>
<path fill-rule="evenodd" clip-rule="evenodd" d="M527.14 360C525.815 360 524.494 360.027 523.171 360.095C522.162 360.148 520.621 359.939 519.768 360.568C518.881 361.221 518.942 362.557 519.081 363.501C519.813 368.493 521.6 372.919 525.339 376.456C531.096 381.901 537.695 384.668 545.504 385.9C550.99 386.766 556.054 385.564 560.092 381.663C563.043 387.139 565.281 393.199 566.404 399.315C566.958 402.333 567.127 405.315 567.03 408.388C566.967 410.356 566.859 412.32 566.648 414.279C566.556 415.13 566.122 416.418 566.455 417.223C566.846 418.167 568.165 418.259 568.757 417.453C569.25 416.783 569.16 415.466 569.261 414.673C569.429 413.355 569.584 412.036 569.695 410.712C569.876 408.569 570.009 406.42 570 404.268C569.977 399.435 568.902 394.583 567.432 389.995C564.612 381.192 560.037 373.369 552.921 367.231C548.545 363.457 543.537 361.929 537.856 361.108C534.318 360.597 530.723 360 527.14 360Z" fill="#89C5CC"/>
<path fill-rule="evenodd" clip-rule="evenodd" d="M547.571 395C533.272 395 523.642 406.524 519.089 418.502C517.372 423.016 516.97 427.974 516.308 432.714C516.096 434.236 516.175 436.554 515.557 437.909C515.333 438.401 514.819 438.577 515.065 439.247C515.214 439.652 515.505 439.901 515.944 439.981C516.843 440.147 518.115 439.167 518.886 438.781C525.282 435.573 529.484 430.613 532.912 424.545C535.038 420.784 537.194 416.879 538.456 412.75C539.227 410.227 539.676 407.571 539.94 404.954C540.044 403.923 540.144 402.868 540.138 401.832C540.132 400.803 539.653 400.259 539.309 399.364C544.08 397.558 549.466 397.066 554.299 398.937C558.769 400.668 562.482 404.013 564.561 408.216C565.101 409.308 565.518 410.46 565.821 411.636C566.02 412.406 566.029 413.404 566.398 414.1C567.29 415.788 569.168 414.66 568.988 413.089C568.485 408.708 565.979 404.309 562.775 401.263C558.734 397.421 553.258 395 547.571 395Z" fill="#89C5CC"/>
<rect x="563" y="142" width="159" height="302" rx="8" fill="#DDE3E9"/>
<path fill-rule="evenodd" clip-rule="evenodd" d="M642 425C650.284 425 657 418.284 657 410C657 401.716 650.284 395 642 395C633.716 395 627 401.716 627 410C627 418.284 633.716 425 642 425Z" fill="white"/>
<path fill-rule="evenodd" clip-rule="evenodd" d="M629 162C630.105 162 631 161.105 631 160C631 158.895 630.105 158 629 158C627.895 158 627 158.895 627 160C627 161.105 627.895 162 629 162Z" fill="white"/>
<rect x="636" y="158" width="21" height="4" rx="2" fill="white"/>
<rect x="577" y="170" width="131" height="54" rx="4" fill="white"/>
<g clip-path="url(#clip6)">
<rect x="586" y="186.2" width="73" height="8.1" rx="3" fill="#DDE3E9"/>
<rect x="586" y="199.7" width="49" height="8.1" rx="3" fill="#DDE3E9"/>
</g>
<path fill-rule="evenodd" clip-rule="evenodd" d="M694 204C697.866 204 701 200.866 701 197C701 193.134 697.866 190 694 190C690.134 190 687 193.134 687 197C687 200.866 690.134 204 694 204Z" fill="#DDE3E9"/>
<path fill-rule="evenodd" clip-rule="evenodd" d="M694 200C695.657 200 697 198.657 697 197C697 195.343 695.657 194 694 194C692.343 194 691 195.343 691 197C691 198.657 692.343 200 694 200Z" fill="#F2F2F2"/>
<rect x="577" y="232" width="131" height="42" rx="4" fill="white"/>
<g clip-path="url(#clip7)">
<rect x="616" y="244.6" width="73" height="6.3" rx="3" fill="#DDE3E9"/>
<rect x="616" y="255.1" width="49" height="6.3" rx="3" fill="#DDE3E9"/>
</g>
<path fill-rule="evenodd" clip-rule="evenodd" d="M598 265C604.627 265 610 259.627 610 253C610 246.373 604.627 241 598 241C591.373 241 586 246.373 586 253C586 259.627 591.373 265 598 265Z" fill="#C5CFD6"/>
<rect x="577" y="282" width="131" height="42" rx="4" fill="white"/>
<g clip-path="url(#clip8)">
<rect x="586" y="294.6" width="73" height="6.3" rx="3" fill="#DDE3E9"/>
<rect x="586" y="305.1" width="49" height="6.3" rx="3" fill="#AFB9C5"/>
</g>
<path fill-rule="evenodd" clip-rule="evenodd" d="M694 310C697.866 310 701 306.866 701 303C701 299.134 697.866 296 694 296C690.134 296 687 299.134 687 303C687 306.866 690.134 310 694 310Z" fill="#DDE3E9"/>
<path fill-rule="evenodd" clip-rule="evenodd" d="M694 306C695.657 306 697 304.657 697 303C697 301.343 695.657 300 694 300C692.343 300 691 301.343 691 303C691 304.657 692.343 306 694 306Z" fill="#F2F2F2"/>
<rect x="577" y="332" width="131" height="42" rx="4" fill="white"/>
<g clip-path="url(#clip9)">
<rect x="616" y="344.6" width="73" height="6.3" rx="3" fill="#DDE3E9"/>
<rect x="616" y="355.1" width="49" height="6.3" rx="3" fill="#DDE3E9"/>
</g>
<path fill-rule="evenodd" clip-rule="evenodd" d="M598 365C604.627 365 610 359.627 610 353C610 346.373 604.627 341 598 341C591.373 341 586 346.373 586 353C586 359.627 591.373 365 598 365Z" fill="#C5CFD6"/>
<rect x="629" y="167" width="335" height="346" rx="8" fill="#F2F2F2"/>
<rect x="878" y="210" width="70" height="81" rx="8" fill="white"/>
<path fill-rule="evenodd" clip-rule="evenodd" d="M913 257C921.837 257 929 249.837 929 241C929 232.163 921.837 225 913 225C904.163 225 897 232.163 897 241C897 249.837 904.163 257 913 257Z" fill="#DDE3E9"/>
<rect x="888" y="261" width="50" height="6" rx="3" fill="#DDE3E9"/>
<rect x="896" y="271" width="34" height="6" rx="3" fill="#DDE3E9"/>
<path d="M629 175C629 170.582 632.582 167 637 167H956C960.418 167 964 170.582 964 175V194H629V175Z" fill="#C5CFD6"/>
<path fill-rule="evenodd" clip-rule="evenodd" d="M642 185C644.209 185 646 183.209 646 181C646 178.791 644.209 177 642 177C639.791 177 638 178.791 638 181C638 183.209 639.791 185 642 185Z" fill="#F2F2F2"/>
<path fill-rule="evenodd" clip-rule="evenodd" d="M654 185C656.209 185 658 183.209 658 181C658 178.791 656.209 177 654 177C651.791 177 650 178.791 650 181C650 183.209 651.791 185 654 185Z" fill="#F2F2F2"/>
<path fill-rule="evenodd" clip-rule="evenodd" d="M666 185C668.209 185 670 183.209 670 181C670 178.791 668.209 177 666 177C663.791 177 662 178.791 662 181C662 183.209 663.791 185 666 185Z" fill="#F2F2F2"/>
<rect x="878" y="299" width="70" height="194" rx="8" fill="white"/>
<rect x="896" y="317" width="34" height="26" rx="4" fill="#DDE3E9"/>
<rect x="896" y="351" width="34" height="25" rx="4" fill="#AFB9C5"/>
<rect x="896" y="384" width="34" height="25" rx="4" fill="#DDE3E9"/>
<rect x="896" y="450" width="34" height="25" rx="4" fill="#DDE3E9"/>
<rect x="896" y="417" width="34" height="25" rx="4" fill="#C5CFD6"/>
<rect x="645" y="211" width="225" height="47" rx="4" fill="white"/>
<g clip-path="url(#clip10)">
<rect x="654" y="225.1" width="167" height="7.05" rx="3" fill="#DDE3E9"/>
<rect x="654" y="236.85" width="112.096" height="7.05" rx="3" fill="#DDE3E9"/>
</g>
<path fill-rule="evenodd" clip-rule="evenodd" d="M845.954 241.5C849.82 241.5 852.954 238.366 852.954 234.5C852.954 230.634 849.82 227.5 845.954 227.5C842.088 227.5 838.954 230.634 838.954 234.5C838.954 238.366 842.088 241.5 845.954 241.5Z" fill="#DDE3E9"/>
<path fill-rule="evenodd" clip-rule="evenodd" d="M845.954 237.5C847.611 237.5 848.954 236.157 848.954 234.5C848.954 232.843 847.611 231.5 845.954 231.5C844.297 231.5 842.954 232.843 842.954 234.5C842.954 236.157 844.297 237.5 845.954 237.5Z" fill="#F2F2F2"/>
<rect x="645" y="266" width="225" height="39" rx="4" fill="white"/>
<g clip-path="url(#clip11)">
<rect x="654" y="277.7" width="167" height="5.85" rx="2.925" fill="#DDE3E9"/>
<rect x="654" y="287.45" width="112.096" height="5.85" rx="2.925" fill="#DDE3E9"/>
</g>
<path fill-rule="evenodd" clip-rule="evenodd" d="M845.954 292.5C849.82 292.5 852.954 289.366 852.954 285.5C852.954 281.634 849.82 278.5 845.954 278.5C842.088 278.5 838.954 281.634 838.954 285.5C838.954 289.366 842.088 292.5 845.954 292.5Z" fill="#DDE3E9"/>
<path fill-rule="evenodd" clip-rule="evenodd" d="M845.954 288.5C847.611 288.5 848.954 287.157 848.954 285.5C848.954 283.843 847.611 282.5 845.954 282.5C844.297 282.5 842.954 283.843 842.954 285.5C842.954 287.157 844.297 288.5 845.954 288.5Z" fill="#F2F2F2"/>
<rect x="645" y="313" width="225" height="39" rx="4" fill="white"/>
<g clip-path="url(#clip12)">
<rect x="654" y="324.7" width="167" height="5.85" rx="2.925" fill="#DDE3E9"/>
<rect x="654" y="334.45" width="112.096" height="5.85" rx="2.925" fill="#DDE3E9"/>
</g>
<path fill-rule="evenodd" clip-rule="evenodd" d="M845.954 339.5C849.82 339.5 852.954 336.366 852.954 332.5C852.954 328.634 849.82 325.5 845.954 325.5C842.088 325.5 838.954 328.634 838.954 332.5C838.954 336.366 842.088 339.5 845.954 339.5Z" fill="#DDE3E9"/>
<path fill-rule="evenodd" clip-rule="evenodd" d="M845.954 335.5C847.611 335.5 848.954 334.157 848.954 332.5C848.954 330.843 847.611 329.5 845.954 329.5C844.297 329.5 842.954 330.843 842.954 332.5C842.954 334.157 844.297 335.5 845.954 335.5Z" fill="#AFB9C5"/>
<rect x="645" y="454" width="225" height="39" rx="4" fill="white"/>
<g clip-path="url(#clip13)">
<rect x="654" y="465.7" width="167" height="5.85" rx="2.925" fill="#DDE3E9"/>
<rect x="654" y="475.45" width="112.096" height="5.85" rx="2.925" fill="#DDE3E9"/>
</g>
<path fill-rule="evenodd" clip-rule="evenodd" d="M845.954 480.5C849.82 480.5 852.954 477.366 852.954 473.5C852.954 469.634 849.82 466.5 845.954 466.5C842.088 466.5 838.954 469.634 838.954 473.5C838.954 477.366 842.088 480.5 845.954 480.5Z" fill="#DDE3E9"/>
<path fill-rule="evenodd" clip-rule="evenodd" d="M845.954 476.5C847.611 476.5 848.954 475.157 848.954 473.5C848.954 471.843 847.611 470.5 845.954 470.5C844.297 470.5 842.954 471.843 842.954 473.5C842.954 475.157 844.297 476.5 845.954 476.5Z" fill="#F2F2F2"/>
<rect x="645" y="407" width="225" height="39" rx="4" fill="white"/>
<g clip-path="url(#clip14)">
<rect x="654" y="418.7" width="167" height="5.85" rx="2.925" fill="#DDE3E9"/>
<rect x="654" y="428.45" width="112.096" height="5.85" rx="2.925" fill="#DDE3E9"/>
</g>
<path fill-rule="evenodd" clip-rule="evenodd" d="M845.954 433.5C849.82 433.5 852.954 430.366 852.954 426.5C852.954 422.634 849.82 419.5 845.954 419.5C842.088 419.5 838.954 422.634 838.954 426.5C838.954 430.366 842.088 433.5 845.954 433.5Z" fill="#DDE3E9"/>
<path fill-rule="evenodd" clip-rule="evenodd" d="M845.954 429.5C847.611 429.5 848.954 428.157 848.954 426.5C848.954 424.843 847.611 423.5 845.954 423.5C844.297 423.5 842.954 424.843 842.954 426.5C842.954 428.157 844.297 429.5 845.954 429.5Z" fill="#F2F2F2"/>
<rect x="645" y="360" width="225" height="39" rx="4" fill="white"/>
<g clip-path="url(#clip15)">
<rect x="654" y="371.7" width="167" height="5.85" rx="2.925" fill="#DDE3E9"/>
<rect x="654" y="381.45" width="112.096" height="5.85" rx="2.925" fill="#DDE3E9"/>
</g>
<path fill-rule="evenodd" clip-rule="evenodd" d="M845.954 386.5C849.82 386.5 852.954 383.366 852.954 379.5C852.954 375.634 849.82 372.5 845.954 372.5C842.088 372.5 838.954 375.634 838.954 379.5C838.954 383.366 842.088 386.5 845.954 386.5Z" fill="#DDE3E9"/>
<path fill-rule="evenodd" clip-rule="evenodd" d="M845.954 382.5C847.611 382.5 848.954 381.157 848.954 379.5C848.954 377.843 847.611 376.5 845.954 376.5C844.297 376.5 842.954 377.843 842.954 379.5C842.954 381.157 844.297 382.5 845.954 382.5Z" fill="#F2F2F2"/>
<path fill-rule="evenodd" clip-rule="evenodd" d="M1046.99 337.376C1043.04 334.701 1037.8 334 1033.08 334C1014.64 334 997.311 340.84 982.341 351.032C974.138 356.616 966.8 363.728 960.322 371.132C956.582 375.407 953.248 380.03 950.887 385.173C949.294 388.644 948.201 392.261 947.46 395.991C946.557 400.537 945.839 405.175 945.515 409.797C945.387 411.617 944.33 421.274 947.356 421.438C947.338 421.676 947.334 421.903 947.353 422.106C940.782 432.38 936.723 444.42 932.958 455.835C929.683 465.769 926.764 475.786 924.87 486.063C922.375 499.592 920.737 513.326 919.958 527.05C919.791 529.999 919.676 532.95 919.577 535.903C919.493 538.422 919.408 540.941 919.325 543.461C919.233 546.284 918.736 549.534 919.185 552.34C919.576 554.784 921.691 554.414 921.785 551.982C921.898 549.045 921.879 546.102 922.008 543.163C922.179 539.262 922.355 535.361 922.546 531.461C923.875 504.369 928.86 477.675 938.061 452.084C941.785 441.728 946.051 431.925 951.535 422.345C956.356 413.922 962.156 405.767 968.084 398.173C973.845 390.792 979.836 383.583 986.895 377.33C992.624 372.256 998.926 367.835 1005.4 363.722C1013.63 358.498 1021.84 353.401 1030.76 349.391C1035.39 347.307 1040.11 345.441 1044.78 343.44C1045.62 343.081 1046.52 342.732 1047.33 342.315C1050.02 340.925 1049.13 338.832 1046.99 337.376Z" fill="#C1DEE2"/>
<path fill-rule="evenodd" clip-rule="evenodd" d="M972.818 432C980.295 432 986.949 432.972 993.838 435.943C999.785 438.508 1005.2 441.903 1010.47 445.599C1017.87 450.798 1023.7 456.848 1027.78 464.865C1030.22 469.654 1032.01 476.431 1030.37 481.655C1028.44 487.807 1023.14 492.939 1016.17 491.855C1011.86 491.185 1007.9 488.33 1004.62 485.643C1000.7 482.428 997.564 478.563 994.972 474.27C990.744 467.267 988.26 459.351 984.668 452.033C982.964 448.56 981.317 445.063 979.275 441.762C978.265 440.128 977.189 438.509 975.656 437.294C974.836 436.644 971.378 435.52 972.7 434.061C953.31 434.315 936.132 449.207 932.409 467.641C932.063 469.359 931.792 471.091 931.505 472.82C931.325 473.911 931.398 477.937 930.422 478.634C928.27 480.172 929.174 475.499 929.267 474.826C929.506 473.087 929.76 471.35 930.027 469.615C931.481 460.181 935.681 451.411 942.685 444.683C950.694 436.99 961.501 432 972.818 432Z" fill="#89C5CC"/>
<path fill-rule="evenodd" clip-rule="evenodd" d="M220.938 508.736C239.604 540.052 261.345 570.374 274.401 604.613C273.875 600.577 273.317 596.545 272.692 592.52C269.38 571.179 265.262 549.994 260.936 528.835C258.733 518.062 256.402 507.327 254.012 496.594C252.727 490.829 251.457 485.061 250.145 479.302C249.827 477.906 249.554 475.469 249.157 473C261.845 514.637 274.081 556.305 283.031 598.942C284.205 604.538 285.205 610.124 286.024 615.7C286.304 614.428 286.58 613.156 286.881 611.887C290.503 596.68 295.935 581.594 302.403 567.374C305.495 560.575 309.046 553.924 313.228 547.726C315.836 543.863 321.986 539.271 324.364 535.314C311.355 559.176 306.657 589.032 299.145 614.973C297.312 621.304 295.467 627.624 293.659 633.955C304.987 611.237 322.563 592.571 347 584.483C317.42 604.027 299.678 638.254 287.722 673.26C287.683 673.675 287.636 674.09 287.595 674.506C291.114 667.829 295.545 661.789 301.551 657.56C314.407 648.504 328.667 651.142 341.137 658.91C331.35 652.689 313.663 658.354 305.428 664.677C299.533 669.203 294.495 675.275 290.12 681.2C289.072 682.62 287.641 684.277 286.13 686.044C284.012 699.795 280.56 713.452 275.672 727C276.479 723.111 275.896 716.892 276.12 713.993C276.144 713.68 276.164 713.365 276.188 713.053C275.445 716.019 274.727 718.951 274.036 721.837C275.41 716.331 276.156 710.583 276.739 704.776C276.889 702.281 277.036 699.785 277.19 697.29C277.141 692.553 276.946 687.799 276.616 683.036C275.447 678.408 274.137 674.042 273.056 670.411C269.159 657.31 263.444 644.76 256.411 633.051C249.994 622.366 242.312 612.688 233.445 603.935C228.664 599.217 223.661 594.725 218.729 590.17C216.945 588.523 213.757 584.474 211 582.363C231.08 593.434 251.749 605.41 266.398 623.248C264.68 616.653 262.815 610.151 260.842 603.78C250.831 571.454 238.191 537.953 220.938 508.736Z" fill="#DDE3E9"/>
<path fill-rule="evenodd" clip-rule="evenodd" d="M241 686C241 721.899 243.843 751 282 751C320.157 751 323 721.899 323 686" fill="#C5CFD6"/>
<rect x="879" y="124" width="6" height="25" rx="3" fill="#DDE3E9"/>
<rect x="893" y="108" width="6" height="41" rx="3" fill="#DDE3E9"/>
<rect x="907" y="100" width="6" height="49" rx="3" fill="#DDE3E9"/>
<rect x="921" y="108" width="6" height="41" rx="3" fill="#DDE3E9"/>
<rect x="935" y="92" width="6" height="57" rx="3" fill="#C5CFD6"/>
<path fill-rule="evenodd" clip-rule="evenodd" d="M387 398.256C387 387.117 396.002 378 407 378V398.256L393.332 413C389.444 409.395 387 404.107 387 398.256Z" fill="#F2F2F2"/>
<path fill-rule="evenodd" clip-rule="evenodd" d="M406.471 398H426.668C426.668 403.221 424.538 408.113 421.171 411.668C417.468 415.556 412.195 418 406.471 418C401.198 418 396.372 415.891 392.668 412.557L406.471 398Z" fill="#AFB9C5"/>
<path fill-rule="evenodd" clip-rule="evenodd" d="M427 398C427 387.002 417.998 378 407 378V398H427ZM397 378L405 396L387 388C388.78 383.334 392.777 379.78 397 378Z" fill="#C5CFD6"/>
<path fill-rule="evenodd" clip-rule="evenodd" d="M1037.77 407.179C1035.84 409.219 1033.12 410.5 1030.1 410.5C1024.28 410.5 1019.56 405.799 1019.56 400C1019.56 394.201 1024.28 389.5 1030.1 389.5V370C1013.55 370 1000 383.503 1000 400C1000 416.497 1013.55 430 1030.1 430C1038.79 430 1046.64 426.334 1052 420.502L1037.77 407.179Z" fill="#F2F2F2"/>
<path fill-rule="evenodd" clip-rule="evenodd" d="M1030 370V389.5C1035.8 389.5 1040.5 394.201 1040.5 400H1060C1060 383.503 1046.5 370 1030 370Z" fill="#AFB9C5"/>
<path fill-rule="evenodd" clip-rule="evenodd" d="M1040.1 400C1040.1 403.407 1038.49 406.435 1036 408.391L1048.26 424C1055.4 418.412 1060 409.749 1060 400H1040.1Z" fill="#C5CFD6"/>
<path fill-rule="evenodd" clip-rule="evenodd" d="M847.051 131.504C845.573 133.068 843.479 134.05 841.15 134.05C836.675 134.05 833.048 130.446 833.048 126C833.048 121.554 836.675 117.95 841.15 117.95V103C828.42 103 818 113.352 818 126C818 138.648 828.42 149 841.15 149C847.837 149 853.88 146.189 858 141.718L847.051 131.504Z" fill="#F2F2F2"/>
<path fill-rule="evenodd" clip-rule="evenodd" d="M841 103V117.95C845.446 117.95 849.05 121.554 849.05 126H864C864 113.352 853.648 103 841 103Z" fill="#AFB9C5"/>
<path fill-rule="evenodd" clip-rule="evenodd" d="M849.073 126C849.073 128.555 847.869 130.827 846 132.293L855.196 144C860.55 139.809 864 133.312 864 126H849.073Z" fill="#C5CFD6"/>
<path fill-rule="evenodd" clip-rule="evenodd" d="M483.007 148.986C483.003 148.996 482.999 149.006 482.993 149.018C482.999 149.008 483.007 148.968 483.007 148.986Z" fill="#C5CFD6"/>
<path fill-rule="evenodd" clip-rule="evenodd" d="M482.998 149.001C482.998 149.003 482.996 149.007 482.996 149.011C482.996 149.001 483.014 148.971 482.998 149.001Z" fill="#C5CFD6"/>
<path fill-rule="evenodd" clip-rule="evenodd" d="M483.067 148.832C483.053 148.872 483.035 148.91 483.019 148.95C483.027 148.93 483.035 148.914 483.043 148.894C482.835 149.414 482.967 149.076 483.067 148.832Z" fill="#C5CFD6"/>
<path fill-rule="evenodd" clip-rule="evenodd" d="M483.022 148.953C483.014 148.971 483.006 148.991 482.998 149.009C482.94 149.121 483.022 148.953 483.022 148.953Z" fill="#C5CFD6"/>
<path fill-rule="evenodd" clip-rule="evenodd" d="M482.999 149.002C482.999 149 482.999 149 483.001 148.998C482.999 149 482.999 149 482.999 149.002Z" fill="#C5CFD6"/>
<path fill-rule="evenodd" clip-rule="evenodd" d="M482.99 149.016C482.978 149.04 483.046 148.924 482.99 149.016V149.016Z" fill="#C5CFD6"/>
<path fill-rule="evenodd" clip-rule="evenodd" d="M482.998 149.002L483.002 148.998C483 149 483 149.002 482.998 149.002Z" fill="#C5CFD6"/>
<rect x="435" y="97" width="95" height="63" rx="4" fill="#DDE3E9"/>
<path fill-rule="evenodd" clip-rule="evenodd" d="M471 115L443 160H499L471 115Z" fill="#AFB9C5"/>
<path fill-rule="evenodd" clip-rule="evenodd" d="M498.5 127L474 160H523L498.5 127Z" fill="#C5CFD6"/>
<path fill-rule="evenodd" clip-rule="evenodd" d="M509 127C513.971 127 518 122.971 518 118C518 113.029 513.971 109 509 109C504.029 109 500 113.029 500 118C500 122.971 504.029 127 509 127Z" fill="white"/>
<path fill-rule="evenodd" clip-rule="evenodd" d="M959.993 575.986C959.997 575.996 960.001 576.006 960.007 576.018C960.001 576.008 959.993 575.968 959.993 575.986Z" fill="#C5CFD6"/>
<path fill-rule="evenodd" clip-rule="evenodd" d="M960.002 576.001C960.002 576.003 960.004 576.007 960.004 576.011C960.004 576.001 959.986 575.971 960.002 576.001Z" fill="#C5CFD6"/>
<path fill-rule="evenodd" clip-rule="evenodd" d="M959.933 575.832C959.947 575.872 959.965 575.91 959.981 575.95C959.973 575.93 959.965 575.914 959.957 575.894C960.165 576.414 960.033 576.076 959.933 575.832Z" fill="#C5CFD6"/>
<path fill-rule="evenodd" clip-rule="evenodd" d="M959.978 575.953C959.986 575.971 959.994 575.991 960.002 576.009C960.06 576.121 959.978 575.953 959.978 575.953Z" fill="#C5CFD6"/>
<path fill-rule="evenodd" clip-rule="evenodd" d="M960.001 576.002C960.001 576 960.001 576 959.999 575.998C960.001 576 960.001 576 960.001 576.002Z" fill="#C5CFD6"/>
<path fill-rule="evenodd" clip-rule="evenodd" d="M960.01 576.016C960.022 576.04 959.954 575.924 960.01 576.016V576.016Z" fill="#C5CFD6"/>
<path fill-rule="evenodd" clip-rule="evenodd" d="M960.002 576.002L959.998 575.998C960 576 960 576.002 960.002 576.002Z" fill="#C5CFD6"/>
<rect width="142" height="94" rx="4" transform="matrix(-1 0 0 1 1031 499)" fill="#DDE3E9"/>
<path fill-rule="evenodd" clip-rule="evenodd" d="M978.274 526L1019.33 593H937.219L978.274 526Z" fill="#AFB9C5"/>
<path fill-rule="evenodd" clip-rule="evenodd" d="M935.944 543.946L972.239 593H899.649L935.944 543.946Z" fill="#C5CFD6"/>
<path fill-rule="evenodd" clip-rule="evenodd" d="M920.5 544C913.044 544 907 537.956 907 530.5C907 523.044 913.044 517 920.5 517C927.956 517 934 523.044 934 530.5C934 537.956 927.956 544 920.5 544Z" fill="white"/>
<path fill-rule="evenodd" clip-rule="evenodd" d="M523.707 409L578.572 595.316L618.603 732.64H647.8L605.262 409H523.707Z" fill="#191847"/>
<path fill-rule="evenodd" clip-rule="evenodd" d="M509.034 409C507.765 505.029 503.437 557.406 502.105 566.131C500.773 574.855 480.625 630.359 441.663 732.64H471.909C521.511 634.518 549.2 579.015 554.976 566.131C560.752 553.246 578.578 500.869 605.427 409H509.034Z" fill="#2F3676"/>
<path fill-rule="evenodd" clip-rule="evenodd" d="M438.96 759L440.473 728.247L472.253 728.247C494.857 743.623 531.273 753.142 531.273 753.142V759H473.767L454.093 756.071V759H438.96Z" fill="#191847"/>
<path fill-rule="evenodd" clip-rule="evenodd" d="M614.507 759L616.02 728.247L647.8 728.247C670.404 743.623 706.82 753.142 706.82 753.142V759H649.313L629.64 756.071V759H614.507Z" fill="#191847"/>
<path fill-rule="evenodd" clip-rule="evenodd" d="M631.64 414.642L641.997 478.393C649.274 491.065 654.292 502.749 657.053 513.444C657.229 516.463 656.307 521.285 650.304 514.217C644.301 507.149 637.681 499.986 634.629 501.309C631.578 502.633 632.925 509.272 628.206 510.449C625.06 511.233 624.223 500.437 625.696 478.061L604.215 426.536L631.64 414.642Z" fill="#B28B67"/>
<path fill-rule="evenodd" clip-rule="evenodd" d="M571.184 217.991C581.738 224.268 592.109 227.3 596.977 226.062C609.183 222.958 610.305 178.903 600.86 161.535C591.416 144.167 542.864 136.597 540.416 171.008C539.567 182.951 544.649 193.609 552.159 202.306L538.693 264.23H577.808L571.184 217.991Z" fill="#B28B67"/>
<path fill-rule="evenodd" clip-rule="evenodd" d="M573.139 174.809C576.523 169.838 579.771 166.047 583.996 163.845C601.193 164.114 603.206 161.072 603.206 150.821C600.429 148.86 590.628 145.558 579.653 144.629C574.055 143.049 567.422 143.346 561.033 145.983C553.146 148.191 546.468 152.945 543.518 161.847C532.845 180.019 540.946 198.934 551.862 205.396C554.768 202 557.304 198.708 559.567 195.557C557.749 193.805 556.621 191.36 556.621 188.655C556.621 183.327 560.999 179.007 566.4 179.007C566.797 179.007 567.188 179.031 567.573 179.076C567.816 185.738 568.816 208.277 571.443 216.106C574.54 225.336 592.613 227.602 598.916 227.602C604.361 227.602 604.175 222.516 604.042 218.87C604.023 218.345 604.005 217.85 604.005 217.405C604.005 216.473 602.777 216.476 601.39 216.479C599.589 216.482 597.519 216.486 597.519 214.447C597.519 212.225 600.632 210.52 603.418 208.995C605.156 208.043 606.766 207.161 607.414 206.267C609.457 203.445 610.145 199.639 607.063 199.639C605.378 199.639 603.066 200.598 600.285 201.751C596.087 203.491 590.818 205.675 585.022 205.675C575.445 205.675 573.168 175.19 573.139 174.809Z" fill="#38210B"/>
<rect width="4.87264" height="17.5553" rx="2" transform="matrix(-0.994803 0.101823 0.101823 0.994803 610.312 173.04)" fill="#5C3919"/>
<rect width="5.27648" height="36.5342" rx="2" transform="matrix(-0.130526 -0.991445 -0.991445 0.130526 608.473 181.231)" fill="#5C3919"/>
<path fill-rule="evenodd" clip-rule="evenodd" d="M473.156 380.431C473.156 380.431 466.886 473.768 463.149 483.699C461.322 488.554 465 489 453.5 503.846C449.054 507.592 463.656 536 473.156 530.5C474.5 518.5 464.408 511.47 471.5 502.5C477.308 495.154 476.631 522.587 487.176 516.5C482.974 509.48 481.754 494.724 484.527 485.24C486.375 478.917 507.082 376.673 507.082 376.673L473.156 380.431Z" fill="#B28B67"/>
<path fill-rule="evenodd" clip-rule="evenodd" d="M578.187 236.39L591.83 239.699C591.336 304.918 609.264 372.149 645.614 441.393L592.529 465.087C563.959 376.552 527.078 300.898 578.187 236.39Z" fill="#191847"/>
<path fill-rule="evenodd" clip-rule="evenodd" d="M483.926 402.671L608.932 416.533C608.932 416.533 588.227 311.233 585.9 237.365L548.831 227.725C513.775 270.745 498.732 326.83 483.926 402.671Z" fill="#78A3C7"/>
<path fill-rule="evenodd" clip-rule="evenodd" d="M460.698 433.019L453.093 432.175C459.176 399.653 471.606 365.413 486.344 333.487C504.866 286.654 527.574 254.522 539.917 239.055C542.72 234.989 545.44 231.174 548.047 227.638L550.509 227.911C554.91 228.549 563.905 229.936 563.905 229.936L570.055 256.245C566.085 302.672 565.111 444.597 565.111 444.597L516.957 439.257C517.341 447.215 517.984 455.304 518.922 463.505L457.681 466.263C458.277 454.807 459.305 443.722 460.698 433.019Z" fill="#2F3676"/>
<path fill-rule="evenodd" clip-rule="evenodd" d="M483.228 436.147C485.852 408.078 491.486 382.074 498.535 358.758C497.461 387.234 498.147 421.717 506.024 438.675L483.228 436.147Z" fill="black" fill-opacity="0.1"/>
<path fill-rule="evenodd" clip-rule="evenodd" d="M507.057 389.259L549.6 375.489L547.463 393.74L507.057 389.259Z" fill="white" fill-opacity="0.2"/>
</g>
<defs>
<clipPath id="clip0">
<rect width="1465" height="840" fill="white"/>
</clipPath>
<clipPath id="clip1">
<rect width="1230.07" height="316.588" fill="white" transform="translate(113.466 404.353)"/>
</clipPath>
<clipPath id="clip2">
<rect width="73" height="21.6" fill="white" transform="translate(550 160.2)"/>
</clipPath>
<clipPath id="clip3">
<rect width="73" height="16.8" fill="white" transform="translate(550 218.6)"/>
</clipPath>
<clipPath id="clip4">
<rect width="73" height="16.8" fill="white" transform="translate(550 268.6)"/>
</clipPath>
<clipPath id="clip5">
<rect width="73" height="16.8" fill="white" transform="translate(550 318.6)"/>
</clipPath>
<clipPath id="clip6">
<rect width="73" height="21.6" fill="white" transform="translate(586 186.2)"/>
</clipPath>
<clipPath id="clip7">
<rect width="73" height="16.8" fill="white" transform="translate(616 244.6)"/>
</clipPath>
<clipPath id="clip8">
<rect width="73" height="16.8" fill="white" transform="translate(586 294.6)"/>
</clipPath>
<clipPath id="clip9">
<rect width="73" height="16.8" fill="white" transform="translate(616 344.6)"/>
</clipPath>
<clipPath id="clip10">
<rect width="167" height="18.8" fill="white" transform="translate(654 225.1)"/>
</clipPath>
<clipPath id="clip11">
<rect width="167" height="15.6" fill="white" transform="translate(654 277.7)"/>
</clipPath>
<clipPath id="clip12">
<rect width="167" height="15.6" fill="white" transform="translate(654 324.7)"/>
</clipPath>
<clipPath id="clip13">
<rect width="167" height="15.6" fill="white" transform="translate(654 465.7)"/>
</clipPath>
<clipPath id="clip14">
<rect width="167" height="15.6" fill="white" transform="translate(654 418.7)"/>
</clipPath>
<clipPath id="clip15">
<rect width="167" height="15.6" fill="white" transform="translate(654 371.7)"/>
</clipPath>
</defs>
</svg>
