<?xml version="1.0" encoding="UTF-8" standalone="no"?>
<!DOCTYPE svg PUBLIC "-//W3C//DTD SVG 1.1//EN" "http://www.w3.org/Graphics/SVG/1.1/DTD/svg11.dtd">
<svg width="100%" height="100%" viewBox="0 0 54 54" version="1.1" xmlns="http://www.w3.org/2000/svg" xmlns:xlink="http://www.w3.org/1999/xlink" xml:space="preserve" xmlns:serif="http://www.serif.com/" style="fill-rule:evenodd;clip-rule:evenodd;">
    <g id="Page-1">
        <g id="logo-mobile">
            <rect id="Rectangle-6" x="2" y="2" width="50" height="50" style="fill:none;stroke:rgb(30,144,255);stroke-width:4px;"/>
            <g transform="matrix(0.438576,0,0,0.438576,6.86452,17.8635)">
                <g transform="matrix(84.3815,0,0,84.3815,7.92996,50.4923)">
                    <path d="M0.907,-0.708L0.907,-0.688C0.894,-0.685 0.88,-0.678 0.865,-0.666C0.85,-0.653 0.837,-0.632 0.828,-0.601L0.639,0.005L0.623,0.005L0.411,-0.624C0.402,-0.65 0.393,-0.667 0.382,-0.675C0.371,-0.683 0.361,-0.687 0.352,-0.688L0.352,-0.708C0.364,-0.707 0.379,-0.707 0.397,-0.706C0.415,-0.705 0.432,-0.705 0.449,-0.705C0.475,-0.705 0.499,-0.705 0.522,-0.706C0.545,-0.707 0.563,-0.707 0.577,-0.708L0.577,-0.688C0.557,-0.687 0.541,-0.685 0.53,-0.682C0.518,-0.679 0.511,-0.671 0.509,-0.66C0.508,-0.649 0.511,-0.63 0.519,-0.604L0.668,-0.143L0.654,-0.131L0.786,-0.546C0.798,-0.583 0.804,-0.611 0.803,-0.631C0.802,-0.652 0.794,-0.666 0.78,-0.675C0.766,-0.683 0.745,-0.687 0.717,-0.688L0.717,-0.708C0.736,-0.707 0.756,-0.707 0.776,-0.706C0.796,-0.705 0.815,-0.705 0.832,-0.705C0.849,-0.705 0.864,-0.705 0.875,-0.706C0.886,-0.707 0.897,-0.707 0.907,-0.708ZM0.208,-0.708L0.208,-0.688C0.191,-0.687 0.178,-0.683 0.171,-0.678C0.163,-0.673 0.159,-0.664 0.16,-0.653C0.16,-0.641 0.163,-0.625 0.17,-0.604L0.325,-0.131L0.3,-0.106L0.44,-0.553L0.455,-0.529L0.29,0.005L0.274,0.005L0.062,-0.624C0.053,-0.65 0.042,-0.667 0.029,-0.675C0.016,-0.683 0.004,-0.687 -0.007,-0.688L-0.007,-0.708C0.006,-0.707 0.023,-0.707 0.043,-0.706C0.062,-0.705 0.081,-0.705 0.1,-0.705C0.122,-0.705 0.142,-0.705 0.162,-0.706C0.181,-0.707 0.196,-0.707 0.208,-0.708Z" style="fill:rgb(30,144,255);fill-rule:nonzero;"/>
                </g>
                <g transform="matrix(54.4458,0,0,54.4458,64.9724,60.2243)">
                    <path d="M0.342,-0.529L0.346,-0.503L0.065,-0.105L0.064,-0.121L0.37,-0.121C0.397,-0.121 0.415,-0.125 0.422,-0.133C0.429,-0.14 0.434,-0.153 0.437,-0.172L0.454,-0.172C0.454,-0.139 0.454,-0.114 0.455,-0.097C0.456,-0.08 0.457,-0.064 0.458,-0.049C0.452,-0.05 0.441,-0.051 0.425,-0.052C0.409,-0.053 0.391,-0.053 0.37,-0.054C0.349,-0.054 0.329,-0.054 0.309,-0.054L0.017,-0.054L0.017,-0.075L0.342,-0.529ZM0.358,-0.529L0.358,0.141L0.278,0.141L0.278,-0.423L0.342,-0.529L0.358,-0.529Z" style="fill:rgb(30,144,255);fill-rule:nonzero;"/>
                </g>
            </g>
        </g>
    </g>
</svg>
