<?xml version="1.0" encoding="UTF-8" standalone="no"?>
<!DOCTYPE svg PUBLIC "-//W3C//DTD SVG 1.1//EN" "http://www.w3.org/Graphics/SVG/1.1/DTD/svg11.dtd">
<svg width="100%" height="100%" viewBox="0 0 24 24" version="1.1" xmlns="http://www.w3.org/2000/svg" xmlns:xlink="http://www.w3.org/1999/xlink" xml:space="preserve" xmlns:serif="http://www.serif.com/" style="fill-rule:evenodd;clip-rule:evenodd;stroke-linejoin:round;stroke-miterlimit:2;">
    <path d="M4.98,3.5C4.98,4.881 3.87,6 2.5,6C1.13,6 0.02,4.881 0.02,3.5C0.02,2.12 1.13,1 2.5,1C3.87,1 4.98,2.12 4.98,3.5ZM5,8L0,8L0,24L5,24L5,8ZM12.982,8L8.014,8L8.014,24L12.983,24L12.983,15.601C12.983,10.931 19.012,10.549 19.012,15.601L19.012,24L24,24L24,13.869C24,5.989 15.078,6.276 12.982,10.155L12.982,8Z" style="fill:white;fill-rule:nonzero;"/>
</svg>
