<?xml version="1.0" encoding="UTF-8" standalone="no"?>
<!DOCTYPE svg PUBLIC "-//W3C//DTD SVG 1.1//EN" "http://www.w3.org/Graphics/SVG/1.1/DTD/svg11.dtd">
<svg width="100%" height="100%" viewBox="0 0 240 64" version="1.1" xmlns="http://www.w3.org/2000/svg" xmlns:xlink="http://www.w3.org/1999/xlink" xml:space="preserve" xmlns:serif="http://www.serif.com/" style="fill-rule:evenodd;clip-rule:evenodd;stroke-linejoin:round;stroke-miterlimit:2;">
    <g id="Page-1">
        <g id="logo">
        </g>
        <g transform="matrix(0.92442,0,0,0.92442,6.62957,4.09181)">
            <g transform="matrix(62.8221,0,0,62.8221,0.754722,48)">
                <path d="M0.907,-0.708L0.907,-0.688C0.894,-0.685 0.88,-0.678 0.865,-0.666C0.85,-0.653 0.837,-0.632 0.828,-0.601L0.639,0.005L0.623,0.005L0.411,-0.624C0.402,-0.65 0.393,-0.667 0.382,-0.675C0.371,-0.683 0.361,-0.687 0.352,-0.688L0.352,-0.708C0.364,-0.707 0.379,-0.707 0.397,-0.706C0.415,-0.705 0.432,-0.705 0.449,-0.705C0.475,-0.705 0.499,-0.705 0.522,-0.706C0.545,-0.707 0.563,-0.707 0.577,-0.708L0.577,-0.688C0.557,-0.687 0.541,-0.685 0.53,-0.682C0.518,-0.679 0.511,-0.671 0.509,-0.66C0.508,-0.649 0.511,-0.63 0.519,-0.604L0.668,-0.143L0.654,-0.131L0.786,-0.546C0.798,-0.583 0.804,-0.611 0.803,-0.631C0.802,-0.652 0.794,-0.666 0.78,-0.675C0.766,-0.683 0.745,-0.687 0.717,-0.688L0.717,-0.708C0.736,-0.707 0.756,-0.707 0.776,-0.706C0.796,-0.705 0.815,-0.705 0.832,-0.705C0.849,-0.705 0.864,-0.705 0.875,-0.706C0.886,-0.707 0.897,-0.707 0.907,-0.708ZM0.208,-0.708L0.208,-0.688C0.191,-0.687 0.178,-0.683 0.171,-0.678C0.163,-0.673 0.159,-0.664 0.16,-0.653C0.16,-0.641 0.163,-0.625 0.17,-0.604L0.325,-0.131L0.3,-0.106L0.44,-0.553L0.455,-0.529L0.29,0.005L0.274,0.005L0.062,-0.624C0.053,-0.65 0.042,-0.667 0.029,-0.675C0.016,-0.683 0.004,-0.687 -0.007,-0.688L-0.007,-0.708C0.006,-0.707 0.023,-0.707 0.043,-0.706C0.062,-0.705 0.081,-0.705 0.1,-0.705C0.122,-0.705 0.142,-0.705 0.162,-0.706C0.181,-0.707 0.196,-0.707 0.208,-0.708Z" style="fill-rule:nonzero;"/>
            </g>
            <g transform="matrix(62.8221,0,0,62.8221,54.4676,48)">
                <path d="M0.163,0.007C0.12,0.007 0.088,-0.004 0.069,-0.025C0.049,-0.047 0.039,-0.076 0.039,-0.112C0.039,-0.14 0.046,-0.163 0.059,-0.182C0.073,-0.2 0.091,-0.215 0.112,-0.227C0.133,-0.238 0.156,-0.248 0.18,-0.257C0.203,-0.265 0.226,-0.273 0.247,-0.281C0.268,-0.289 0.286,-0.298 0.3,-0.308C0.313,-0.318 0.32,-0.331 0.32,-0.346L0.32,-0.408C0.32,-0.436 0.316,-0.457 0.308,-0.472C0.299,-0.487 0.288,-0.497 0.274,-0.501C0.26,-0.506 0.244,-0.509 0.227,-0.509C0.21,-0.509 0.193,-0.507 0.173,-0.502C0.155,-0.497 0.139,-0.488 0.128,-0.473C0.141,-0.47 0.152,-0.464 0.161,-0.453C0.17,-0.442 0.175,-0.429 0.175,-0.412C0.175,-0.395 0.17,-0.382 0.159,-0.373C0.148,-0.363 0.135,-0.358 0.118,-0.358C0.099,-0.358 0.085,-0.364 0.076,-0.377C0.067,-0.389 0.062,-0.403 0.062,-0.418C0.062,-0.435 0.066,-0.449 0.075,-0.46C0.084,-0.471 0.095,-0.481 0.108,-0.49C0.123,-0.501 0.143,-0.51 0.168,-0.518C0.192,-0.525 0.219,-0.529 0.25,-0.529C0.277,-0.529 0.301,-0.526 0.32,-0.52C0.339,-0.513 0.355,-0.504 0.368,-0.492C0.385,-0.476 0.397,-0.457 0.402,-0.434C0.407,-0.41 0.41,-0.383 0.41,-0.351L0.41,-0.073C0.41,-0.057 0.412,-0.045 0.417,-0.038C0.422,-0.03 0.43,-0.026 0.441,-0.026C0.45,-0.026 0.459,-0.028 0.466,-0.032C0.472,-0.036 0.479,-0.041 0.486,-0.047L0.497,-0.03C0.483,-0.019 0.47,-0.011 0.457,-0.004C0.444,0.003 0.427,0.007 0.406,0.007C0.371,0.007 0.348,-0.002 0.337,-0.02C0.326,-0.038 0.32,-0.059 0.32,-0.082C0.299,-0.047 0.275,-0.023 0.248,-0.011C0.221,0.001 0.192,0.007 0.163,0.007ZM0.207,-0.033C0.227,-0.033 0.247,-0.039 0.266,-0.051C0.285,-0.062 0.303,-0.082 0.32,-0.109L0.32,-0.305C0.31,-0.29 0.295,-0.279 0.274,-0.27C0.253,-0.261 0.231,-0.252 0.209,-0.242C0.186,-0.231 0.167,-0.217 0.151,-0.2C0.135,-0.182 0.127,-0.157 0.127,-0.124C0.127,-0.093 0.135,-0.07 0.15,-0.056C0.165,-0.041 0.184,-0.033 0.207,-0.033Z" style="fill-rule:nonzero;"/>
            </g>
            <g transform="matrix(62.8221,0,0,62.8221,85.753,48)">
                <path d="M0.34,-0.529C0.358,-0.529 0.374,-0.525 0.388,-0.518C0.401,-0.511 0.412,-0.501 0.42,-0.49C0.427,-0.478 0.431,-0.465 0.431,-0.45C0.431,-0.433 0.426,-0.419 0.416,-0.406C0.405,-0.393 0.391,-0.387 0.374,-0.387C0.36,-0.387 0.348,-0.392 0.337,-0.401C0.326,-0.409 0.321,-0.422 0.321,-0.439C0.321,-0.452 0.325,-0.463 0.332,-0.471C0.339,-0.481 0.346,-0.488 0.355,-0.493C0.35,-0.5 0.343,-0.503 0.334,-0.503C0.306,-0.503 0.282,-0.493 0.261,-0.471C0.24,-0.451 0.224,-0.425 0.213,-0.396C0.201,-0.367 0.195,-0.34 0.195,-0.315L0.195,-0.103C0.195,-0.07 0.204,-0.049 0.224,-0.038C0.243,-0.027 0.268,-0.021 0.301,-0.021L0.301,-0C0.286,-0.001 0.264,-0.002 0.236,-0.003C0.208,-0.004 0.178,-0.004 0.147,-0.004C0.124,-0.004 0.102,-0.004 0.08,-0.003C0.057,-0.002 0.04,-0.001 0.029,-0L0.029,-0.021C0.056,-0.021 0.076,-0.026 0.087,-0.036C0.099,-0.046 0.105,-0.065 0.105,-0.093L0.105,-0.406C0.105,-0.436 0.1,-0.458 0.089,-0.472C0.078,-0.487 0.058,-0.494 0.029,-0.494L0.029,-0.515C0.05,-0.513 0.071,-0.512 0.091,-0.512C0.11,-0.512 0.129,-0.513 0.147,-0.516C0.164,-0.518 0.18,-0.521 0.195,-0.526L0.195,-0.401C0.202,-0.42 0.213,-0.44 0.227,-0.46C0.24,-0.479 0.257,-0.496 0.276,-0.509C0.295,-0.522 0.317,-0.529 0.34,-0.529Z" style="fill-rule:nonzero;"/>
            </g>
            <g transform="matrix(62.8221,0,0,62.8221,113.709,48)">
                <path d="M0.34,-0.529C0.358,-0.529 0.374,-0.525 0.388,-0.518C0.401,-0.511 0.412,-0.501 0.42,-0.49C0.427,-0.478 0.431,-0.465 0.431,-0.45C0.431,-0.433 0.426,-0.419 0.416,-0.406C0.405,-0.393 0.391,-0.387 0.374,-0.387C0.36,-0.387 0.348,-0.392 0.337,-0.401C0.326,-0.409 0.321,-0.422 0.321,-0.439C0.321,-0.452 0.325,-0.463 0.332,-0.471C0.339,-0.481 0.346,-0.488 0.355,-0.493C0.35,-0.5 0.343,-0.503 0.334,-0.503C0.306,-0.503 0.282,-0.493 0.261,-0.471C0.24,-0.451 0.224,-0.425 0.213,-0.396C0.201,-0.367 0.195,-0.34 0.195,-0.315L0.195,-0.103C0.195,-0.07 0.204,-0.049 0.224,-0.038C0.243,-0.027 0.268,-0.021 0.301,-0.021L0.301,-0C0.286,-0.001 0.264,-0.002 0.236,-0.003C0.208,-0.004 0.178,-0.004 0.147,-0.004C0.124,-0.004 0.102,-0.004 0.08,-0.003C0.057,-0.002 0.04,-0.001 0.029,-0L0.029,-0.021C0.056,-0.021 0.076,-0.026 0.087,-0.036C0.099,-0.046 0.105,-0.065 0.105,-0.093L0.105,-0.406C0.105,-0.436 0.1,-0.458 0.089,-0.472C0.078,-0.487 0.058,-0.494 0.029,-0.494L0.029,-0.515C0.05,-0.513 0.071,-0.512 0.091,-0.512C0.11,-0.512 0.129,-0.513 0.147,-0.516C0.164,-0.518 0.18,-0.521 0.195,-0.526L0.195,-0.401C0.202,-0.42 0.213,-0.44 0.227,-0.46C0.24,-0.479 0.257,-0.496 0.276,-0.509C0.295,-0.522 0.317,-0.529 0.34,-0.529Z" style="fill-rule:nonzero;"/>
            </g>
            <g transform="matrix(62.8221,0,0,62.8221,140.408,48)">
                <path d="M0.272,-0.529C0.331,-0.529 0.377,-0.511 0.409,-0.475C0.443,-0.44 0.459,-0.384 0.459,-0.309L0.106,-0.309L0.105,-0.328L0.363,-0.328C0.364,-0.361 0.362,-0.391 0.355,-0.419C0.348,-0.446 0.338,-0.468 0.324,-0.485C0.309,-0.502 0.291,-0.51 0.268,-0.51C0.237,-0.51 0.21,-0.495 0.187,-0.464C0.163,-0.433 0.149,-0.385 0.144,-0.318L0.147,-0.314C0.146,-0.304 0.145,-0.293 0.144,-0.281C0.143,-0.269 0.143,-0.257 0.143,-0.245C0.143,-0.2 0.15,-0.161 0.165,-0.128C0.18,-0.095 0.199,-0.07 0.223,-0.054C0.246,-0.037 0.271,-0.028 0.296,-0.028C0.326,-0.028 0.354,-0.035 0.379,-0.05C0.404,-0.065 0.426,-0.091 0.443,-0.128L0.463,-0.12C0.456,-0.098 0.444,-0.077 0.427,-0.056C0.41,-0.035 0.389,-0.019 0.364,-0.006C0.339,0.007 0.309,0.014 0.276,0.014C0.228,0.014 0.187,0.003 0.153,-0.019C0.118,-0.041 0.092,-0.071 0.074,-0.111C0.055,-0.15 0.046,-0.194 0.046,-0.245C0.046,-0.304 0.055,-0.354 0.074,-0.397C0.093,-0.439 0.119,-0.471 0.153,-0.495C0.187,-0.518 0.227,-0.529 0.272,-0.529Z" style="fill-rule:nonzero;"/>
            </g>
            <g transform="matrix(62.8221,0,0,62.8221,172.196,48)">
                <path d="M0.365,-0.529C0.39,-0.529 0.411,-0.526 0.429,-0.519C0.446,-0.512 0.46,-0.503 0.471,-0.491C0.484,-0.478 0.493,-0.461 0.498,-0.441C0.503,-0.421 0.506,-0.394 0.506,-0.36L0.506,-0.093C0.506,-0.065 0.512,-0.046 0.524,-0.036C0.535,-0.026 0.555,-0.021 0.582,-0.021L0.582,-0C0.571,-0.001 0.553,-0.002 0.53,-0.003C0.507,-0.004 0.484,-0.004 0.462,-0.004C0.44,-0.004 0.419,-0.004 0.398,-0.003C0.377,-0.002 0.361,-0.001 0.35,-0L0.35,-0.021C0.374,-0.021 0.391,-0.026 0.401,-0.036C0.411,-0.046 0.416,-0.065 0.416,-0.093L0.416,-0.382C0.416,-0.403 0.414,-0.422 0.411,-0.439C0.408,-0.456 0.4,-0.47 0.389,-0.481C0.377,-0.492 0.359,-0.497 0.335,-0.497C0.293,-0.497 0.259,-0.48 0.234,-0.445C0.208,-0.409 0.195,-0.366 0.195,-0.315L0.195,-0.093C0.195,-0.065 0.2,-0.046 0.21,-0.036C0.22,-0.026 0.237,-0.021 0.261,-0.021L0.261,-0C0.25,-0.001 0.234,-0.002 0.214,-0.003C0.193,-0.004 0.171,-0.004 0.149,-0.004C0.127,-0.004 0.104,-0.004 0.081,-0.003C0.058,-0.002 0.04,-0.001 0.029,-0L0.029,-0.021C0.056,-0.021 0.076,-0.026 0.087,-0.036C0.099,-0.046 0.105,-0.065 0.105,-0.093L0.105,-0.406C0.105,-0.436 0.1,-0.458 0.089,-0.472C0.078,-0.487 0.058,-0.494 0.029,-0.494L0.029,-0.515C0.05,-0.513 0.071,-0.512 0.091,-0.512C0.11,-0.512 0.129,-0.513 0.147,-0.516C0.164,-0.518 0.18,-0.521 0.195,-0.526L0.195,-0.408C0.212,-0.453 0.236,-0.485 0.268,-0.502C0.299,-0.52 0.331,-0.529 0.365,-0.529Z" style="fill-rule:nonzero;"/>
            </g>
            <g transform="matrix(94.8012,0,0,103.332,209.032,50.2364)">
                <path d="M0.342,-0.529L0.346,-0.503L0.065,-0.105L0.064,-0.121L0.37,-0.121C0.397,-0.121 0.415,-0.125 0.422,-0.133C0.429,-0.14 0.434,-0.153 0.437,-0.172L0.454,-0.172C0.454,-0.139 0.454,-0.114 0.455,-0.097C0.456,-0.08 0.457,-0.064 0.458,-0.049C0.452,-0.05 0.441,-0.051 0.425,-0.052C0.409,-0.053 0.391,-0.053 0.37,-0.054C0.349,-0.054 0.329,-0.054 0.309,-0.054L0.017,-0.054L0.017,-0.075L0.342,-0.529ZM0.358,-0.529L0.358,0.141L0.278,0.141L0.278,-0.423L0.342,-0.529L0.358,-0.529Z" style="fill:rgb(30,144,255);fill-rule:nonzero;"/>
            </g>
        </g>
    </g>
</svg>
